<?xml version="1.0" encoding="iso-8859-1"?>
<!-- Generator: Adobe Illustrator 22.1.0, SVG Export Plug-In . SVG Version: 6.00 Build 0)  -->
<svg version="1.1" xmlns="http://www.w3.org/2000/svg" xmlns:xlink="http://www.w3.org/1999/xlink" x="0px" y="0px"
	 viewBox="-49 141 512 512" style="enable-background:new -49 141 512 512;" xml:space="preserve">
<g id="Layer_1" style="display:none;">
	<path style="display:inline;" d="M415.932,354.02c7.44-41.37,5.48-95.992-12.892-117.327
		c-17.325-20.121-66.121-38.28-79.168-42.879l-19.465-38.928C300.126,146.321,291.517,141,281.941,141H132.059
		c-9.575,0-18.185,5.321-22.467,13.885l-19.465,38.929c-13.047,4.598-61.843,22.758-79.168,42.879
		C-7.413,258.028-9.372,312.649-1.931,354.02c-2.235,9.554-11.871,55.029-3.075,94.92c-0.506,7.686-3.135,49.172-2.111,64.388
		c0.853,12.664,4.765,23.667,11.218,32.256l-0.986,31.318c-0.443,9.887,4.98,19.135,13.83,23.576c0.1,0.051,0.203,0.099,0.306,0.146
		l62.016,27.899v7.91c0,9.136,7.432,16.568,16.568,16.568h222.33c9.136,0,16.568-7.432,16.568-16.568v-7.91l62.017-27.9
		c0.104-0.047,0.204-0.095,0.306-0.146c8.872-4.451,14.299-13.733,13.826-23.675l-1.56-30.472
		c6.796-8.693,10.919-19.965,11.796-33.001c1.024-15.216-1.605-56.702-2.111-64.388C427.803,409.049,418.167,363.574,415.932,354.02
		z M405.119,512.25c-0.65,9.673-4.298,26.964-21.405,34.07l-25.062,10.412c-0.95-12.299-3.184-25.802-4.071-30.878
		c5.301-16.555,6.279-32.905,5.39-46.996l43.693-18.151C404.548,475.944,405.831,501.689,405.119,512.25z M343.058,566.766
		c0,20.185-15.251,35.996-34.72,35.996h-93.322v-69.478h124.55C340.93,541.74,343.058,556.563,343.058,566.766z M70.942,566.766
		c0-10.189,2.128-25.022,3.492-33.482h124.55v69.478h-93.321C86.193,602.762,70.942,586.951,70.942,566.766z M30.285,546.32
		C13.179,539.214,9.53,521.924,8.88,512.25c-0.711-10.559,0.573-36.305,1.456-51.543l43.693,18.151
		c-0.889,14.091,0.089,30.441,5.389,46.996c-0.887,5.076-3.12,18.581-4.07,30.878L30.285,546.32z M54.945,385.176
		c-2.032,25.58,4.103,46.902,6.709,54.571c-1.408,4.089-3.866,12.095-5.672,22.561l-45.791-19.022
		c-5.619-28.062-1.429-59.746,1.549-76.058L54.945,385.176z M94.186,209.377c13.261,10.803,60.433,47.242,104.796,57.364v79.486
		H78.198V320.04c0-1.841-0.581-43.753-48.398-79.077C46.431,227.958,78.025,215.125,94.186,209.377z M319.814,209.376
		c16.157,5.742,47.75,18.569,64.387,31.586c-47.818,35.325-48.4,77.237-48.4,79.078v26.188H215.017v-79.486
		C259.38,256.619,306.554,220.178,319.814,209.376z M402.261,367.228c2.978,16.313,7.168,47.998,1.549,76.058l-45.791,19.022
		c-1.805-10.467-4.264-18.473-5.672-22.561c2.606-7.669,8.74-28.992,6.708-54.571L402.261,367.228z M215.017,517.251v-69.478
		h123.069c3.494,11.296,10.447,40.02,2.312,69.478H215.017z M73.602,517.251c-8.088-29.348-1.152-58.159,2.325-69.478h123.056
		v69.478H73.602z M338.201,362.261c9.785,29.31,3.234,58.145-0.155,69.478h-123.03v-69.478H338.201z M198.983,431.739H75.954
		c-3.392-11.343-9.939-40.173-0.156-69.478h123.186V431.739z M206.996,216.468c-10.821-7.12-40.96-28.332-67.023-59.435h134.053
		C248.012,188.072,217.824,209.335,206.996,216.468z M400.226,350.713l-43.596,18.11c-1.164-5.298-2.722-10.684-4.795-16.09v-32.646
		c0.018-1.529,0.933-36.527,42.894-66.964C404.272,272.091,406.854,313.448,400.226,350.713z M308.13,198.179
		c-13.82,11.041-55.044,42.094-93.113,52.073V230.4c11.512-7.462,46.121-31.47,75.203-67.824c0.022-0.029,0.041-0.059,0.063-0.089
		L308.13,198.179z M123.716,162.488c0.022,0.029,0.041,0.06,0.064,0.089c29.082,36.354,63.692,60.361,75.203,67.823v19.851
		c-38.027-9.976-79.283-41.035-93.112-52.074L123.716,162.488z M19.27,253.123c41.962,30.437,42.877,65.434,42.894,66.917v32.693
		c-2.073,5.406-3.632,10.792-4.795,16.09l-43.596-18.11C7.146,313.447,9.727,272.091,19.27,253.123z M19.133,577.592
		c0.002-0.043,0.003-0.085,0.004-0.128l0.581-18.465c1.429,0.767,2.888,1.494,4.415,2.128L55.41,574.12
		c1.5,11.031,6.357,21.221,14.061,29.245c2.451,2.553,5.122,4.806,7.966,6.753l-53.43-24.037
		C20.874,584.447,18.965,581.131,19.133,577.592z M95.301,636.432V617.73c3.367,0.701,6.833,1.066,10.362,1.066h93.321v18.171
		H95.835C95.54,636.967,95.301,636.726,95.301,636.432z M318.165,636.967H215.017v-18.171h93.322c3.528,0,6.995-0.365,10.361-1.066
		v18.702C318.699,636.726,318.459,636.967,318.165,636.967z M389.992,586.081l-53.432,24.038c2.845-1.948,5.517-4.201,7.969-6.754
		c7.704-8.024,12.562-18.214,14.061-29.245l31.275-12.992c1.399-0.581,2.743-1.239,4.061-1.931l0.942,18.398
		C395.035,581.131,393.126,584.447,389.992,586.081z"/>
</g>
<g id="Lager_2">
	<path style="fill:none;stroke:#2B2F3A;stroke-width:6;stroke-linecap:round;stroke-linejoin:round;stroke-miterlimit:10;" d="
		M320.522,581.266l-0.724,23.412H102.482l-0.954-23.412c-22.563-15.93-9.329-75.82-9.329-75.82
		c-14.343-25.906,0.924-73.539,0.924-73.539c-14.255-29.248,0-71.867,0-71.867H321.47c13.767,24.234,0,72.703,0,72.703
		c16.553,16.713,6.387,72.703,6.387,72.703C338.583,518.845,320.522,581.266,320.522,581.266l49.054-26.913v-35.648
		c0,0,18.455-13.371,6.755-73.539c0,0,5.901-60.28-1.435-76.663c0,0,4.908-84.2-3.096-93.603c0,0-28.06-26.952-71.023-41.994
		L275.793,187l-144.267,0.112l-24.984,45.907c-38.441,14.206-66.501,41.158-66.501,41.158c-8.004,9.403-3.096,93.603-3.096,93.603
		c-7.336,16.383-1.435,76.663-1.435,76.663c-11.699,60.168,6.755,73.539,6.755,73.539v35.648l60.934,27.637"/>
	<line style="fill:none;stroke:#2B2F3A;stroke-width:6;stroke-miterlimit:10;" x1="93.123" y1="431.907" x2="321.47" y2="432.743"/>
	
		<line style="fill:none;stroke:#2B2F3A;stroke-width:6;stroke-miterlimit:10;" x1="92.199" y1="505.446" x2="327.857" y2="505.446"/>
	<line style="fill:none;stroke:#2B2F3A;stroke-width:6;stroke-miterlimit:10;" x1="103.2" y1="581.266" x2="320.522" y2="581.266"/>
	<path style="fill:none;stroke:#2B2F3A;stroke-width:6;stroke-miterlimit:10;" d="M49.82,265.795c0,0,47.248,33.289,43.303,94.245"
		/>
	<path style="fill:none;stroke:#2B2F3A;stroke-width:6;stroke-miterlimit:10;" d="M363.335,265.986c0,0-47.248,33.289-43.303,94.245
		"/>
	<line style="fill:none;stroke:#2B2F3A;stroke-width:6;stroke-miterlimit:10;" x1="36.946" y1="367.779" x2="85.788" y2="388.453"/>
	<line style="fill:none;stroke:#2B2F3A;stroke-width:6;stroke-miterlimit:10;" x1="35.511" y1="444.442" x2="86" y2="468.268"/>
	<line style="fill:none;stroke:#2B2F3A;stroke-width:6;stroke-miterlimit:10;" x1="42.266" y1="517.981" x2="87.672" y2="539.728"/>
	
		<line style="fill:none;stroke:#2B2F3A;stroke-width:6;stroke-miterlimit:10;" x1="374.897" y1="368.503" x2="328.285" y2="385.946"/>
	
		<line style="fill:none;stroke:#2B2F3A;stroke-width:6;stroke-miterlimit:10;" x1="376.332" y1="445.166" x2="329.986" y2="463.654"/>
	
		<line style="fill:none;stroke:#2B2F3A;stroke-width:6;stroke-miterlimit:10;" x1="369.577" y1="518.705" x2="330.151" y2="539.622"/>
	<polyline style="fill:none;stroke:#2B2F3A;stroke-width:6;stroke-miterlimit:10;" points="138.295,187.106 205.921,252.239 
		210.028,604.678 	"/>
	<line style="fill:none;stroke:#2B2F3A;stroke-width:6;stroke-miterlimit:10;" x1="275.793" y1="187" x2="205.921" y2="252.239"/>
	<polyline style="fill:none;stroke:#2B2F3A;stroke-width:6;stroke-miterlimit:10;" points="106.543,233.018 205.921,283.994 
		300.778,232.907 	"/>
</g>
<g id="Lager_3" style="display:none;">
	
		<polygon style="display:inline;fill:none;stroke:#2F2F2F;stroke-width:6;stroke-linecap:round;stroke-linejoin:round;stroke-miterlimit:10;" points="
		147.109,235 270.082,235 270.082,277.709 345.4,322.627 347.154,523.654 299.535,523.654 299.535,361.655 299.881,361.655 
		299.881,559 117.655,559 117.655,361.655 117.655,361.655 117.655,523.654 66.846,523.654 70.528,322.556 147.109,277.709 	"/>
	
		<line style="display:inline;fill:none;stroke:#2F2F2F;stroke-width:6;stroke-miterlimit:10;" x1="194.973" y1="235" x2="194.973" y2="559"/>
	
		<line style="display:inline;fill:none;stroke:#2F2F2F;stroke-width:6;stroke-miterlimit:10;" x1="223.691" y1="235" x2="223.691" y2="559"/>
	
		<line style="display:inline;fill:none;stroke:#2F2F2F;stroke-width:6;stroke-linecap:round;stroke-linejoin:round;stroke-miterlimit:10;" x1="254.618" y1="366.809" x2="254.618" y2="398.473"/>
	<circle style="display:inline;fill:#2F2F2F;" cx="254.462" cy="352.866" r="2.899"/>
	
		<line style="display:inline;fill:none;stroke:#2F2F2F;stroke-width:6;stroke-miterlimit:10;" x1="117.655" y1="441.182" x2="194.973" y2="441.182"/>
	
		<line style="display:inline;fill:none;stroke:#2F2F2F;stroke-width:6;stroke-miterlimit:10;" x1="225.9" y1="441.182" x2="298.063" y2="441.182"/>
	
		<line style="display:inline;fill:none;stroke:#2F2F2F;stroke-width:6;stroke-linecap:round;stroke-linejoin:round;stroke-miterlimit:10;" x1="147.109" y1="277.709" x2="194.973" y2="311.582"/>
	
		<line style="display:inline;fill:none;stroke:#2F2F2F;stroke-width:6;stroke-linecap:round;stroke-linejoin:round;stroke-miterlimit:10;" x1="271.554" y1="279.918" x2="223.691" y2="313.791"/>
</g>
</svg>
