<?xml version="1.0" encoding="utf-8"?>
<!-- Generator: Adobe Illustrator 22.1.0, SVG Export Plug-In . SVG Version: 6.00 Build 0)  -->
<svg version="1.1" xmlns="http://www.w3.org/2000/svg" xmlns:xlink="http://www.w3.org/1999/xlink" x="0px" y="0px"
	 viewBox="0 0 425.9 160.5" style="enable-background:new 0 0 425.9 160.5;" xml:space="preserve">
<style type="text/css">
	.st0{display:none;}
	.st1{display:inline;}
	.st2{fill:#FFFFFF;}
</style>
<g id="Lager_1" class="st0">
	<path class="st1" d="M219.2,74.5L219.2,74.5c0.4-0.7,0.8-1.1,1.5-1.1c0.2,0,0.3,0,0.4,0v1.4h0c-1.1-0.1-1.8,0.5-1.8,1.8v3h-1.6
		v-6.2h1.6V74.5z"/>
	<path class="st1" d="M191.1,76.9l-0.7,0.7v2.1h-1.6v-8.6h1.6v4.7l2.2-2.3h2l-2.3,2.3l2.5,3.8h-2L191.1,76.9z"/>
	<path class="st1" d="M195.3,71.1h1.6v8.6h-1.6V71.1z"/>
	<path class="st1" d="M192,80.8h1.6v8.6H192V80.8z"/>
	<path class="st1" d="M198.6,80.8h1.6v8.6h-1.6V80.8z"/>
	<path class="st1" d="M195.3,80.8h1.6v5.5h-1.6V80.8z"/>
	<path class="st1" d="M188.8,80.8h1.6v4.7h-1.6V80.8z"/>
	<path class="st1" d="M201.8,80.8h1.6v4.7h-1.6V80.8z"/>
	<path class="st1" d="M201.7,79L201.7,79c-0.3,0.5-0.8,0.8-1.8,0.8c-1.3,0-2.1-0.7-2.1-1.9c0-1.4,1.1-1.8,2.5-2
		c1-0.1,1.5-0.2,1.5-0.7c0-0.4-0.3-0.7-1-0.7c-0.8,0-1.1,0.3-1.2,0.9H198c0-1.1,0.9-2,2.7-2c1.8,0,2.6,0.8,2.6,2.3v3.1
		c0,0.5,0.1,0.7,0.2,0.9v0.1h-1.6C201.8,79.6,201.8,79.3,201.7,79z M198.6,71.4h1.5v1.4h-1.5V71.4z M201.8,77.5v-0.9
		c-0.3,0.2-0.7,0.3-1.1,0.4c-0.9,0.2-1.3,0.4-1.3,1s0.4,0.8,1,0.8C201.2,78.7,201.8,78.1,201.8,77.5z M201.3,71.4h1.5v1.4h-1.5V71.4
		z"/>
	<path class="st1" d="M204,76.6c0-1.9,1.1-3.2,2.6-3.2c0.9,0,1.4,0.4,1.7,0.9h0v-3.2h1.6v8.6h-1.6v-0.8h0c-0.4,0.6-1,1-1.8,1
		C205.1,79.9,204,78.6,204,76.6z M208.5,76.7c0-1.2-0.4-2-1.4-2c-0.9,0-1.4,0.8-1.4,1.9c0,1.2,0.5,1.9,1.3,1.9
		C208,78.5,208.5,77.8,208.5,76.7z"/>
	<path class="st1" d="M210.8,76.6c0-1.8,1.2-3.2,3-3.2c2,0,3,1.5,3,3.7h-4.5c0.1,0.9,0.6,1.5,1.6,1.5c0.6,0,1-0.3,1.2-0.8h1.6
		c-0.2,1.1-1.2,2-2.8,2C212,79.9,210.8,78.4,210.8,76.6z M212.4,76h2.7c0-0.8-0.6-1.3-1.3-1.3C213,74.6,212.6,75.1,212.4,76z"/>
	<path class="st1" d="M221.9,71.1h1.6v8.6h-1.6V71.1z"/>
	<path class="st1" d="M231,71.1h1.6v8.6H231V71.1z"/>
	<path class="st1" d="M224.3,76.6c0-1.8,1.2-3.2,3-3.2c2,0,3,1.5,3,3.7h-4.5c0.1,0.9,0.6,1.5,1.6,1.5c0.6,0,1-0.3,1.2-0.8h1.6
		c-0.2,1.1-1.2,2-2.8,2C225.4,79.9,224.3,78.4,224.3,76.6z M225.9,76h2.7c0-0.8-0.6-1.3-1.3-1.3C226.5,74.6,226.1,75.1,225.9,76z"/>
	<path class="st1" d="M233.4,76.9l-0.7,0.7v2.1h-1.6v-8.6h1.6v4.7l2.2-2.3h2l-2.3,2.3l2.5,3.8h-2L233.4,76.9z"/>
</g>
<g id="Lager_2">
	<path class="st2" d="M268,30h0.3c3.3-6.1,7-9.3,13.3-9.3c1.6,0,2.5,0.1,3.4,0.4v12.6h-0.3c-9.4-1-16.2,4-16.2,15.4v26.4h-14.4V21.3
		H268V30z"/>
	<path class="st2" d="M20.5,50.8l-6.2,6.4v18.3H0V0h14.3v41.8l19.2-20.5h17.2l-20,20.6l22.4,33.6H35.7L20.5,50.8z"/>
	<path class="st2" d="M57.9,0h14.4v75.5H57.9V0z"/>
	<path class="st2" d="M28.5,85h14.4v75.5H28.5V85z"/>
	<path class="st2" d="M86.2,85h14.4v75.5H86.2V85z"/>
	<path class="st2" d="M57.8,85.1h14.4v48.4H57.8V85.1z"/>
	<path class="st2" d="M0,85h14.4v41.8H0V85z"/>
	<path class="st2" d="M114.9,85h14.4v41.8h-14.4V85z"/>
	<path class="st2" d="M114.2,69.5H114c-2.7,4.1-6.7,7.3-15.9,7.3c-11.1,0-18.9-5.8-18.9-16.6c0-11.9,9.7-15.7,21.8-17.4
		c9-1.3,13.1-2,13.1-6.1c0-3.9-3.1-6.4-9.1-6.4c-6.8,0-10,2.4-10.5,7.6H81.7C82.1,28.3,89.2,20,105,20c16.3,0,22.8,7.3,22.8,20v27.6
		c0,4.1,0.6,6.5,1.9,7.5v0.5h-13.8C115,74.4,114.5,71.9,114.2,69.5z M86.6,2.1h13.5v12H86.6V2.1z M114.3,56.4v-8.1
		c-2.5,1.5-6.4,2.3-10,3.2c-7.5,1.7-11.2,3.4-11.2,8.4s3.4,6.9,8.4,6.9C109.7,66.7,114.3,61.7,114.3,56.4z M110.2,2.1h13.5v12h-13.5
		V2.1z"/>
	<path class="st2" d="M134.3,48.5c0-16.9,9.6-28.6,23.1-28.6c7.6,0,12.4,3.5,15.3,8h0.3V0h14.4v75.5h-13.8v-7.1h-0.2
		c-3.2,5.2-8.6,8.7-16.2,8.7C143.6,77.1,134.3,66,134.3,48.5z M173.3,48.8c0-10.3-3.4-17.3-12.6-17.3c-7.9,0-11.9,7-11.9,17
		c0,10.5,4.1,16.6,11.5,16.6C168.9,65,173.3,58.7,173.3,48.8z"/>
	<path class="st2" d="M194.1,48.4c0-16,10.9-28.5,26.7-28.5c17.4,0,26.7,13.3,26.7,32.6h-39.3c1.1,8.3,5.7,13.5,13.8,13.5
		c5.6,0,8.9-2.5,10.5-6.7h14.2c-2,9.6-10.6,17.7-24.5,17.7C204.2,77.1,194.1,64.5,194.1,48.4z M208.4,42.5h24.1
		c-0.4-6.9-5-11.6-11.5-11.6C213.4,30.9,209.7,35.5,208.4,42.5z"/>
	<path class="st2" d="M291.5,0h14.4v75.5h-14.4V0z"/>
	<path class="st2" d="M372.1,0h14.4v75.5h-14.4V0z"/>
	<path class="st2" d="M312.7,48.4c0-16,10.9-28.5,26.7-28.5c17.4,0,26.7,13.3,26.7,32.6h-39.3c1.1,8.3,5.7,13.5,13.8,13.5
		c5.6,0,8.9-2.5,10.5-6.7h14.2c-2,9.6-10.6,17.7-24.5,17.7C322.8,77.1,312.7,64.5,312.7,48.4z M327.1,42.5h24.1
		c-0.4-6.9-5-11.6-11.5-11.6C332,30.9,328.3,35.5,327.1,42.5z"/>
	<path class="st2" d="M393.3,50.8l-6.2,6.4v18.3h-14.3V0h14.3v41.8l19.2-20.5h17.2l-20,20.6l22.4,33.6h-17.4L393.3,50.8z"/>
</g>
</svg>
