<svg id="Lager_2" data-name="Lager 2" xmlns="http://www.w3.org/2000/svg" viewBox="0 0 425.92 160.47"><defs><style>.cls-1{fill:#fff;}</style></defs><title>logo</title><path class="cls-1" d="M268,30h.32c3.28-6.13,7-9.3,13.3-9.3a9.25,9.25,0,0,1,3.38.43V33.68h-.32c-9.39-1-16.15,4-16.15,15.42V75.49H254.17V21.33H268Z"/><path class="cls-1" d="M20.48,50.78l-6.23,6.45V75.49H0V0H14.25V41.81L33.47,21.33H50.68l-20,20.59L53.11,75.49H35.69Z"/><path class="cls-1" d="M57.89,0H72.25V75.49H57.89Z"/><path class="cls-1" d="M28.46,85H42.82v75.5H28.46Z"/><path class="cls-1" d="M86.2,85h14.36v75.5H86.2Z"/><path class="cls-1" d="M57.8,85.06H72.16v48.36H57.8Z"/><path class="cls-1" d="M0,85H14.36v41.82H0Z"/><path class="cls-1" d="M114.92,85h14.35v41.82H114.92Z"/><path class="cls-1" d="M114.18,69.48H114c-2.75,4.11-6.65,7.28-16,7.28-11.08,0-18.89-5.81-18.89-16.58,0-11.93,9.71-15.73,21.75-17.42,9-1.26,13.09-2,13.09-6.12,0-3.91-3.06-6.44-9.08-6.44-6.76,0-10,2.43-10.46,7.6H81.66C82.08,28.3,89.15,20,105,20c16.25,0,22.8,7.29,22.8,20V67.47c0,4.12.63,6.54,1.9,7.49v.53H115.87C115,74.44,114.5,71.9,114.18,69.48ZM86.62,2.11h13.52v12H86.62Zm27.66,54.27V48.25c-2.53,1.48-6.43,2.32-10,3.17-7.5,1.69-11.2,3.38-11.2,8.45s3.38,6.86,8.45,6.86C109.75,66.73,114.28,61.66,114.28,56.38ZM110.17,2.11h13.51v12H110.17Z"/><path class="cls-1" d="M134.27,48.46c0-16.89,9.61-28.61,23.12-28.61,7.6,0,12.36,3.48,15.31,8H173V0h14.36V75.49H173.55V68.42h-.21c-3.17,5.17-8.56,8.66-16.16,8.66C143.56,77.08,134.27,66,134.27,48.46Zm39.07.32c0-10.35-3.38-17.32-12.57-17.32-7.92,0-11.93,7-11.93,17C148.84,58.92,153,65,160.35,65,168.9,65,173.34,58.71,173.34,48.78Z"/><path class="cls-1" d="M194.06,48.36c0-16,10.88-28.51,26.72-28.51,17.42,0,26.71,13.3,26.71,32.62H208.21C209.27,60.82,213.91,66,222,66c5.6,0,8.87-2.53,10.45-6.65h14.16c-2,9.61-10.56,17.74-24.5,17.74C204.2,77.08,194.06,64.51,194.06,48.36Zm14.36-5.81h24.07c-.42-6.86-5-11.61-11.5-11.61C213.39,30.94,209.69,35.48,208.42,42.55Z"/><path class="cls-1" d="M291.46,0h14.36V75.49H291.46Z"/><path class="cls-1" d="M372.06,0h14.35V75.49H372.06Z"/><path class="cls-1" d="M312.7,48.36c0-16,10.88-28.51,26.71-28.51,17.42,0,26.71,13.3,26.71,32.62H326.85c1,8.35,5.7,13.52,13.83,13.52,5.6,0,8.87-2.53,10.45-6.65h14.15c-2,9.61-10.56,17.74-24.5,17.74C322.84,77.08,312.7,64.51,312.7,48.36Zm14.36-5.81h24.07c-.42-6.86-5-11.61-11.51-11.61C332,30.94,328.33,35.48,327.06,42.55Z"/><path class="cls-1" d="M393.29,50.78l-6.23,6.45V75.49H372.81V0h14.25V41.81l19.22-20.48h17.21l-20,20.59,22.39,33.57H408.5Z"/></svg>