<?xml version="1.0" encoding="utf-8"?>
<!-- Generator: Adobe Illustrator 22.1.0, SVG Export Plug-In . SVG Version: 6.00 Build 0)  -->
<svg version="1.1" id="Lager_1" xmlns="http://www.w3.org/2000/svg" xmlns:xlink="http://www.w3.org/1999/xlink" x="0px" y="0px"
	 viewBox="0 0 500 500" style="enable-background:new 0 0 500 500;" xml:space="preserve">
<style type="text/css">
	.st0{display:none;}
	.st1{display:inline;}
	.st2{display:inline;fill:#FFFFFF;}
	.st3{fill:none;stroke:#2B2F3A;stroke-width:6;stroke-linecap:round;stroke-linejoin:round;stroke-miterlimit:10;}
	.st4{display:inline;fill:none;stroke:#000000;stroke-width:2.9232;stroke-miterlimit:10;}
	.st5{fill:none;stroke:#000000;stroke-width:1.4607;stroke-linecap:round;stroke-linejoin:round;stroke-miterlimit:10;}
	.st6{fill:none;stroke:#000000;stroke-width:2.9214;stroke-linejoin:round;stroke-miterlimit:10;}
	.st7{fill:none;stroke:#000000;stroke-width:3.8045;stroke-linecap:round;stroke-linejoin:round;stroke-miterlimit:10;}
	.st8{fill:none;stroke:#000000;stroke-width:4;stroke-linecap:round;stroke-linejoin:round;stroke-miterlimit:10;}
	.st9{display:inline;fill:none;stroke:#000000;stroke-width:5;stroke-linecap:round;stroke-linejoin:round;stroke-miterlimit:10;}
	.st10{fill:none;stroke:#020203;stroke-width:5.8847;stroke-linecap:round;stroke-linejoin:round;stroke-miterlimit:10;}
	.st11{fill:none;stroke:#020203;stroke-width:5.8847;stroke-miterlimit:10;}
	
		.st12{display:inline;fill:none;stroke:#020203;stroke-width:5.8847;stroke-linecap:round;stroke-linejoin:round;stroke-miterlimit:10;}
	.st13{display:inline;fill:none;stroke:#020203;stroke-width:5.8847;stroke-miterlimit:10;}
	.st14{display:inline;fill:#020203;}
	.st15{display:inline;fill:none;stroke:#000000;stroke-width:4;stroke-linecap:round;stroke-linejoin:round;stroke-miterlimit:10;}
	
		.st16{display:inline;fill:none;stroke:#000000;stroke-width:3.9329;stroke-linecap:round;stroke-linejoin:round;stroke-miterlimit:10;}
	.st17{display:inline;fill:none;stroke:#020203;stroke-width:4;stroke-linecap:round;stroke-linejoin:round;stroke-miterlimit:10;}
	.st18{fill:none;stroke:#3ABAC6;stroke-width:8;stroke-linecap:round;stroke-linejoin:round;stroke-miterlimit:10;}
	.st19{fill:none;stroke:#000000;stroke-width:8;stroke-linecap:round;stroke-linejoin:round;stroke-miterlimit:10;}
</style>
<g id="Lager_1_1_" class="st0">
	<path class="st1" d="M298.4,237.9c0,14.3-0.6,28.7,0.2,43c0.9,16.6,0.1,33-2.8,49.3c-0.9,5-1.8,10-3.2,14.9
		c-1.8,6.2-2.1,12.1,0.3,18.4c2.4,6.2-1.1,11.9-7.5,13.5c-6.7,1.7-13.5,1.5-18.6-3.8c-4.1-4.3-7.8-9.1-11.1-14.1
		c-3.1-4.8-2.9-10.1-1.3-15.6c2.2-7.8,3.6-15.7,0.5-23.6c-1-2.5-2.5-4.8-4.6-8.6c-2.2,3.5-4,5.7-5,8.3c-2.7,6.7-2.5,13.8-0.3,20.5
		c4.7,14.4-1.9,24.4-11.7,33.4c-5.3,4.9-11.8,5.1-18.3,3.6c-6.7-1.5-10.1-7.2-7.6-13.8c2.3-6.2,1.9-11.8,0.2-18
		c-7.5-28.3-7.6-57-4.8-86.1c2.7-0.4,3.7,0.7,3.6,3.5c-0.4,8.9-0.8,17.9-1.1,26.8c-0.7,20.4,2.4,40.2,7.4,59.9
		c0.9,3.5,0.3,7.5-0.4,11.2c-0.7,3.6-3,7.3,0.2,10.4c3.5,3.4,8.1,3.8,12.6,2.4c10.7-3.2,19.5-18.7,16.7-29.4
		c-2.1-8.2-3.1-16.4-0.6-24.7c1.4-4.7,3.5-10.7,8.8-10.8c5.8-0.1,7.6,6.1,9.2,10.9c2.5,7.6,1.4,15.2-0.4,22.8
		c-2.8,11.8,3,24.8,14.1,30c3,1.4,6.9,1.5,10.3,1.1c5.2-0.6,7.8-4.6,5.7-9.4c-3.2-7.1-1.8-13.7,0-20.7c6-23.6,7.1-47.5,5.4-71.7
		c-0.8-11.5-0.5-23.1-1-34.7c-0.3-9.5-1.5-19.1-1.3-28.6c0.1-6.2,1.7-12.5,3.5-18.5c1.1-3.6,0.7-5.9-2.6-7.4
		c-5.8-2.7-11.8-5.1-17.6-7.8c-1.4-0.6-2.7-1.7-4-2.5c1.1-1.1,2.1-2.4,3.4-3.4c4-3.1,8.2-6,12.1-9.3c3.7-3.1,4.5-7.3,2-11.2
		c-4.2-6.6-8.8-13-13.8-19c-1.4-1.8-4.6-2.8-7-2.9c-11.9-0.3-23.7-0.4-35.6,0.1c-3,0.1-6.5,2.2-8.5,4.6c-4.4,4.9-8.3,10.4-11.7,16
		c-3.4,5.7-2.8,8.6,2.1,13.1c3.4,3.1,7.3,5.6,11,8.4c1.4,1.1,2.5,2.4,3.7,3.7c-1.6,0.9-3.2,2-4.8,2.8c-6.1,2.9-12.2,5.7-18.3,8.6
		c-2.4,1.1-2.4,2.7-1.5,4.9c4.5,11.3,4.7,23.1,3.5,35.1c-0.7,6.4-0.6,12.9-1.2,19.4c-0.1,1.5-1.3,2.8-2,4.2
		c-0.5-0.2-1.1-0.3-1.6-0.5c-0.1-2.8-0.3-5.7-0.5-9.7c-1.9,1.8-3.1,3-4.4,4.1c-7.6,6.5-15.2,13.1-22.9,19.4
		c-3.6,2.9-7.8,4.2-12.6,3.3c-9.1-1.7-14.2-8.7-10.8-17.2c3.2-7.9,7.2-15.8,12.4-22.5c10.5-13.3,21.5-26.3,33.3-38.5
		c5.3-5.5,12.9-8.7,19.5-12.8c1-0.6,2.1-1,3.6-1.7c-3.4-2.9-6.5-5.3-9.4-8c-6-5.7-7.1-10.7-2.9-17.8c3.9-6.4,8.2-12.8,13.4-18.2
		c2.7-2.8,7.5-4.6,11.5-4.9c11.2-0.6,22.5-0.3,33.8-0.2c4.8,0,9.2,1.7,12.2,5.7c4.5,5.9,9.2,11.7,12.8,18c4.5,7.9,1.8,14.4-6.1,18.9
		c-2.4,1.3-4.1,3.9-6.1,5.9c3.7,3.7,6.8,6.4,12.2,7.1c3.8,0.5,7.7,4.5,10.6,7.7c12.5,14.3,24.8,28.7,36.8,43.4
		c3.5,4.3,6,9.7,8.2,14.9c3.2,7.3,2,12.8-2.8,16.8c-5,4.2-12.8,5-18.5,0.7c-8.3-6.3-16.2-13.3-24.1-20.2c-1.3-1.1-2.1-3-3.1-4.5
		C298.8,237,298.6,237.5,298.4,237.9z M299.2,187.7c-4.8,9.4-6.7,29.3-3.8,38.4c0.6,2,1.8,4.1,3.2,5.5c7.3,7,14.8,13.9,22.4,20.6
		c1.2,1,4.6,1.3,5.6,0.4c4-3.4,7.7-7.3,11.1-11.4c2.1-2.5,1.8-5.4-0.3-8c-7.2-9-14.2-18.2-21.5-27.1
		C310.7,199.9,305,194.2,299.2,187.7z M200.5,186.9c-12.1,14.6-23.8,28.1-34.9,42c-6.4,8.1-5.8,11.5,1.4,18.9c1.6,1.6,3.5,3,5.3,4.4
		c2.5,1.8,4.9,2,7.4-0.4c6.5-6.1,13.1-12.1,19.7-18.1c3.5-3.1,5.5-6.8,5.8-11.6C206.2,210.7,206.4,199.4,200.5,186.9z M172.9,256.9
		c-5-5.3-9.8-10.4-14.6-15.4c-4.2,5.9-4.8,11.9-1.2,15.5C161.4,261.2,167.3,261.1,172.9,256.9z M327.2,256.9
		c5.6,4.3,11.1,4.5,15.6,0.1c3.8-3.7,3.2-10-1.1-15.3C337,246.6,332.2,251.7,327.2,256.9z"/>
	<path class="st1" d="M261.9,175.7c11.5,26.4,13.5,54,13.9,81.9c0.2,14.9,0.1,29.9,0.1,44.9c0,1.5-0.3,3-0.5,4.5c-0.5,0-1,0-1.5,0
		c-0.1-1.5-0.4-3.1-0.3-4.6c1.9-26.4,0.3-52.8-2.1-79c-1.4-14.8-3.9-29.5-10.1-43.3c-1.4-3.1-3-4.8-6.6-4.2c-1.7,0.2-3.4,0-5.1,0
		c-9.5,0-10-0.2-12.8,9.2c-3,10-4.9,20.3-7.2,30.5c-0.6,2.7-1.2,5.4-2.5,7.9c0.7-16.5,3.9-32.4,10.1-46.9
		c-4.2-4.3-8.4-7.9-11.8-12.1c-2-2.4-3.3-5.6-4.2-8.6c-2.4-7.7-0.8-10.8,7-12.4c14.7-3.1,29.4-3.1,44.1,0.1c7,1.5,8.9,5.1,6.7,11.9
		C276.3,164.2,271,171.1,261.9,175.7z M250.1,143c-7.7,1-15.3,1.9-22.9,3c-3.4,0.5-5,2.8-4.3,6.3c1.8,9,6.7,16.2,15,19.8
		c4.1,1.8,9.3,1.2,14.1,1.3c12.9,0.2,22.1-7.4,24.9-20c0.9-4-0.2-6.9-4.4-7.5C265.1,144.8,257.6,144,250.1,143z"/>
	<path class="st1" d="M224.4,306.9c-2-24.1-1-48.1,2-72.5c0.3,1.5,1,2.9,1,4.4c-0.2,21.4-0.5,42.8-0.9,64.3c0,1.3-0.3,2.7-0.5,4
		C225.5,307,224.9,306.9,224.4,306.9z"/>
	<path class="st2" d="M299.2,187.7c5.9,6.4,11.6,12.2,16.7,18.5c7.4,8.9,14.3,18.1,21.5,27.1c2.1,2.7,2.4,5.6,0.3,8
		c-3.4,4-7.1,7.9-11.1,11.4c-1.1,0.9-4.4,0.6-5.6-0.4c-7.7-6.6-15.1-13.6-22.4-20.6c-1.5-1.4-2.6-3.5-3.2-5.5
		C292.5,217,294.4,197.1,299.2,187.7z"/>
	<path class="st2" d="M200.5,186.9c5.9,12.5,5.7,23.8,4.9,35.2c-0.3,4.8-2.3,8.5-5.8,11.6c-6.6,6-13.3,12-19.7,18.1
		c-2.5,2.4-4.9,2.2-7.4,0.4c-1.9-1.3-3.7-2.7-5.3-4.4c-7.2-7.4-7.8-10.8-1.4-18.9C176.7,215,188.4,201.5,200.5,186.9z"/>
	<path class="st2" d="M172.9,256.9c-5.6,4.3-11.5,4.4-15.8,0c-3.5-3.5-2.9-9.6,1.2-15.5C163.1,246.5,167.9,251.5,172.9,256.9z"/>
	<path class="st2" d="M327.2,256.9c5-5.2,9.8-10.2,14.5-15.2c4.3,5.3,5,11.6,1.1,15.3C338.3,261.4,332.8,261.2,327.2,256.9z"/>
	<path class="st2" d="M250.1,143c7.5,1,15,1.8,22.4,3c4.2,0.7,5.3,3.5,4.4,7.5c-2.8,12.6-12,20.1-24.9,20c-4.7-0.1-10,0.5-14.1-1.3
		c-8.3-3.7-13.2-10.8-15-19.8c-0.7-3.5,0.9-5.8,4.3-6.3C234.8,144.9,242.4,144,250.1,143z"/>
	<g id="XfocU3.tif" class="st1">
	</g>
</g>
<g id="Fleeceoverall">
	<path class="st3" d="M76.2,226.8l80.9-98.6l42.6-24c0,0-28.6-16.6-28.6-34.8s21-45.9,34.5-53c11.6-6.1,73.7-6,85.5,0
		c10.9,5.5,35.5,34.4,36.1,53c0.6,18.7-32.2,34.8-32.2,34.8l45.3,24l82.1,98.1c0,0,21.8,29.3,1.9,43.1C404.4,283.2,387,263,387,263
		l-55.4-50.4c0,0,17.7,122.5-3.7,193.8c-3.4,11.1-7.6,37.3-5.1,44.4c5.8,16.3,10.1,34.6-16,34.6c-24.6,0-50.5-33.9-47.6-48.8
		c7-35.5,10.6-71.5-9.1-71.5c-25.1,0-9.8,58.5-11,71.8s-11.2,39.8-35.5,48.2s-35.4-11.7-30.3-26.5c5.3-15.1,0.7-39.5-4.9-52.2
		C158,383.2,167,212.8,167,212.8l-54.4,50.1c0,0-22.1,17.4-37.3,5.9S76.2,226.8,76.2,226.8z"/>
	<path class="st3" d="M167,212.8c9-48.5-10-84.6-10-84.6"/>
	<path class="st3" d="M340.2,128.2c0,0-19,47.6-8.7,86.2"/>
	<path class="st3" d="M229.2,107.7c0,0-41.4,81.2-25.8,246.7"/>
	<path class="st3" d="M295.8,354.4c11.8-165.5-28.9-246.7-28.9-246.7"/>
	<path class="st3" d="M272.1,107.7c22.1-6.9,30.5-40.1,30.5-40.1c5.3-20.5-53.2-18.7-53.2-18.7c-62.3-1.6-53.1,20.5-53.1,20.5
		c2.8,19.3,29.2,38.2,29.2,38.2h46.6V107.7z"/>
	<line class="st3" x1="76.2" y1="226.8" x2="112.6" y2="262.9"/>
	<line class="st3" x1="422.4" y1="226.3" x2="386.9" y2="262.9"/>
	<g class="st0">
		<path class="st4" d="M228.6,218.6l42.2-51.5l22.2-12.5c0,0-14.9-8.7-14.9-18.2s11.5-23.1,18-27.7c4.7-3.3,38.5-3.1,44.7,0
			c5.7,2.9,18.5,18,18.8,27.7s-16.8,18.2-16.8,18.2l23.6,12.5l42.9,51.2c0,0,11.4,15.3,1,22.5s-19.5-3.4-19.5-3.4l-28.9-26.3
			c0,0,9.3,64-1.9,101.2c-1.8,5.8-4,19.5-2.7,23.2c3,8.5,5.3,18.1-8.4,18.1c-12.8,0-26.4-17.7-24.9-25.5c3.6-18.5,5.5-37.4-4.8-37.3
			c-13.1,0-5.1,30.5-5.8,37.5c-0.6,7-5.9,20.8-18.5,25.2c-12.7,4.4-18.5-6.1-15.8-13.8c2.8-7.9,0.4-20.6-2.6-27.2
			c-5.3-12.1-0.6-101-0.6-101l-28.4,26.1c0,0-11.6,9.1-19.5,3.1C220.2,234.5,228.6,218.6,228.6,218.6z"/>
		<path class="st4" d="M270.8,167.2c0,0,9.9,18.8,5.2,44.2"/>
		<path class="st4" d="M366.4,167.2c0,0-9.9,24.8-4.5,45"/>
		<path class="st4" d="M308.5,156.4c0,0-21.6,42.4-13.5,128.8"/>
		<path class="st4" d="M328.1,156.4c0,0,21.3,42.4,15.1,128.8"/>
		<path class="st4" d="M306.5,156.4c0,0-13.8-9.9-15.3-20c0,0-4.8-11.5,27.7-10.7c0,0,30.6-1,27.8,9.7c0,0-4.4,17.4-15.9,20.9h-24.3
			V156.4z"/>
		<line class="st4" x1="228.6" y1="218.6" x2="247.6" y2="237.5"/>
		<line class="st4" x1="409.3" y1="218.4" x2="390.8" y2="237.5"/>
	</g>
</g>
<g id="Ulloverall" class="st0">
	<g class="st1">
		<path class="st5" d="M127.2,210.6l6-5.2l-2.2-2.9l66.4-54l26.1-8.9l4.4-5.4c0,0,10.4,4.7,22.6,4.7c10.2,0,21.2-4.7,21.2-4.7
			l5.8,5.8l25.2,9.2l65.6,53.1l-2.2,2.9l6.7,5.2l-14.3,17.5l-6.8-4.7l-2.1,2.6l-51.1-24.5l0.6,153.1l-4,0.4v9.5
			c0,0-7.4,1.1-13.3,1.4c-6.1,0.3-14.6-0.6-14.6-0.6l-1.2-9.9l-3.9-0.2c0,0-7.1-78.3-11.5-78.5c-4.5-0.2-12.9,78.4-12.9,78.4
			l-2.9,0.1l-1.7,10.2c0,0-8.2,0.7-14.9,0.5c-6.8-0.2-14.2-1.5-14.2-1.5l-0.4-9.9c0,0-3.4-0.2-3.4-0.3l1.3-153l-52.3,25.6l-2.3-2.9
			l-6.1,4.5L127.2,210.6z"/>
		<path class="st5" d="M237.6,354.9c0,0-12,0.3-18.7,0.2c-6.3-0.1-18.7-1.1-18.7-1.1"/>
		<line class="st5" x1="131" y1="202.5" x2="149.3" y2="226.6"/>
		<path class="st5" d="M223.5,139.7c0,0,12.3,7.4,27,7.4c14.7,0,27-6.9,27-6.9"/>
		<path class="st5" d="M262.1,355c0,0,12.4,0.3,18.9,0.3c7.1,0,18.1-0.7,18.1-0.7"/>
		<path class="st5" d="M197.4,148.5c0,0,4.1,11.2,4.6,24.6c0.3,9.1-0.4,27.9-0.4,27.9"/>
		<path class="st5" d="M302.7,149.4c0,0-4.1,11.2-4.6,24.6c-0.3,9.1,0.4,27.9,0.4,27.9"/>
		<line class="st5" x1="349.6" y1="226" x2="368.3" y2="202.5"/>
		<line class="st6" x1="250.5" y1="139" x2="250.5" y2="276.5"/>
		<polygon class="st7" points="250.5,140.1 246.7,150.8 254.4,150.8 		"/>
	</g>
	<g id="Lager_8" class="st1">
		<path class="st8" d="M127.2,210.6l6-5.2l-2.2-2.9l66.4-54l26.1-8.9l4.4-5.4c0,0,10.4,4.7,22.6,4.7c10.2,0,21.2-4.7,21.2-4.7
			l5.8,5.8l25.2,9.2l65.6,53.1l-2.2,2.9l6.7,5.2l-14.3,17.5l-6.8-4.7l-2.1,2.6l-51.1-24.5l0.6,153.1l-4,0.4v9.5
			c0,0-7.4,1.1-13.3,1.4c-6.1,0.3-14.6-0.6-14.6-0.6l-1.2-9.9l-3.9-0.2c0,0-7.1-78.3-11.5-78.5c-4.5-0.2-12.9,78.4-12.9,78.4
			l-2.9,0.1l-1.7,10.2c0,0-8.2,0.7-14.9,0.5c-6.8-0.2-14.2-1.5-14.2-1.5l-0.4-9.9c0,0-3.4-0.2-3.4-0.3l1.3-153l-52.3,25.6l-2.3-2.9
			l-6.1,4.5L127.2,210.6z M200.3,354c0,0,12.4,1,18.7,1.1c6.7,0.1,18.7-0.2,18.7-0.2 M131,202.5l18.3,24.1 M223.5,139.7
			c0,0,12.3,7.4,27,7.4c14.7,0,27-6.9,27-6.9 M262.1,355c0,0,12.4,0.3,18.9,0.3c7.1,0,18.1-0.7,18.1-0.7 M201.6,201
			c0,0,0.7-18.8,0.4-27.9c-0.5-13.4-4.6-24.6-4.6-24.6 M302.7,149.4c0,0-4.1,11.2-4.6,24.6c-0.3,9.1,0.4,27.9,0.4,27.9 M349.6,226
			l18.7-23.5 M250.5,139v137.5 M250.5,140.1l-3.8,10.7h7.6L250.5,140.1z"/>
	</g>
</g>
<g id="Body" class="st0">
	<path class="st9" d="M124.4,272.8l61.8-112.3l2.6-2l27.3-21h67.2l29.9,23.1L375,272.8L352.1,289l-49.3-75.1c0,0,0.3,81.3,0.3,82.4
		c0,1.1-6.5,50.1-52.1,50.1s-55.4-47.1-55.4-46.3c0,2.4,0.9-85.9,0.9-85.9L148.6,289L124.4,272.8z M285,138.8c0,0-77.7,49.6-77.7,75
		c0,4.8,0,75.1,0,75.1v3.2 M303.1,285.1c0,0-29.6,13.3-31.7,39.9c-0.9,11.6,2.9,15.3,2.9,15.3 M214.3,138.8l32.4,27.5 M224.9,339.6
		c0,0,3.2-3,2.3-14.6c-2-26.6-31.7-39.9-31.7-39.9 M227,322.9h44.3 M196.4,221.2c0,0,5.4-45-7.5-62.7 M310.6,158.5
		c-12.9,17.7-7.5,62.7-7.5,62.7"/>
	<circle class="st1" cx="262.8" cy="329.8" r="2.1"/>
	<circle class="st1" cx="235.2" cy="329.8" r="2.1"/>
</g>
<g id="Tröja_randig" class="st0">
	<g class="st1">
		<path class="st10" d="M127.5,301.1l63.8-121.5l36.5-14c0,0-2.4,20,22.3,20s23.1-20,23.1-20l32.9,11.6l66.6,123.9L350,315.5
			l-48.1-85.4l0.4,97.8h-107l2.4-98.2l-47.3,85.4L127.5,301.1z"/>
		<path class="st11" d="M275.9,166.4"/>
		<line class="st11" x1="273.1" y1="165.5" x2="227.7" y2="165.5"/>
		<line class="st11" x1="191.3" y1="179.6" x2="232.4" y2="179.6"/>
		<line class="st11" x1="267.8" y1="179.6" x2="307.2" y2="179.6"/>
		<line class="st11" x1="180.4" y1="200.2" x2="318.3" y2="200.2"/>
		<line class="st11" x1="169.3" y1="221.3" x2="329.7" y2="221.3"/>
		<line class="st11" x1="157.8" y1="243.3" x2="190.1" y2="243.3"/>
		<line class="st11" x1="197.3" y1="243.3" x2="302.8" y2="243.3"/>
		<line class="st11" x1="310.2" y1="243.3" x2="341.5" y2="243.3"/>
		<line class="st11" x1="146.4" y1="265.1" x2="178.1" y2="265.1"/>
		<line class="st11" x1="196.8" y1="265.1" x2="302.9" y2="265.1"/>
		<line class="st11" x1="322.4" y1="265.1" x2="352.7" y2="265.1"/>
		<line class="st11" x1="134.8" y1="287.2" x2="165.8" y2="287.2"/>
		<line class="st11" x1="196.3" y1="287.2" x2="303" y2="287.2"/>
		<line class="st11" x1="334.9" y1="287.2" x2="365.1" y2="287.2"/>
		<line class="st11" x1="139.6" y1="308.5" x2="154" y2="308.5"/>
		<line class="st11" x1="195.7" y1="308.5" x2="302.8" y2="308.5"/>
		<line class="st11" x1="346.9" y1="308.5" x2="362.1" y2="308.5"/>
	</g>
</g>
<g id="Tröja" class="st0">
	<path class="st9" d="M137.9,294.2l57.2-110.1c6.8-11.8,36.5-16.4,36.5-16.4h44.6c0,0,28.6,4.6,35.8,16.4l57.5,110.1l-20.9,14.5
		l-43.8-77.1l1.1,88.5H202.7v-88.5l-43.8,76.7L137.9,294.2z M232,167.7c1.2,10.9,9.5,17.7,22,17.7s20.9-6.7,22-17.6"/>
	<path class="st12" d="M124.3,301.1l63.8-121.5l36.5-14c0,0-2.4,20,22.3,20s23.1-20,23.1-20l32.9,11.6l66.6,123.9l-22.7,14.4
		l-48.1-85.4L299,328H192.1l2.4-98.2l-47.3,85.4L124.3,301.1z"/>
	<path class="st13" d="M272.8,166.4"/>
	<line class="st13" x1="269.9" y1="165.6" x2="224.6" y2="165.6"/>
	<circle class="st14" cx="249.1" cy="198.3" r="3.3"/>
	<circle class="st14" cx="249" cy="211.4" r="3.3"/>
	<path class="st9" d="M257.6,232.6c0,0,1.3,9.9,14.1,9.9c12.4,0,13.3-9.9,13.3-9.9v-18.5h-27.4V232.6z"/>
</g>
<g id="Sweatshirt" class="st0">
	<path class="st9" d="M137.9,294.2l57.2-110.1c6.8-11.8,36.5-16.4,36.5-16.4h44.6c0,0,28.6,4.6,35.8,16.4l57.5,110.1l-20.9,14.5
		l-43.8-77.1l1.1,88.5H202.7v-88.5l-43.8,76.7L137.9,294.2z M232,167.7c1.2,10.9,9.5,17.7,22,17.7s20.9-6.7,22-17.6"/>
	<path class="st12" d="M125.9,301.1l63.8-121.5l36.5-14c0,0-2.4,20,22.3,20s23.1-20,23.1-20l32.9,11.6l66.6,123.9l-22.7,14.4
		l-48.1-85.4l0.4,97.8h-107l2.4-98.2l-47.3,85.4L128,302.4L125.9,301.1z"/>
	<path class="st13" d="M274.8,166.4"/>
	<line class="st13" x1="271.9" y1="165.6" x2="226.6" y2="165.6"/>
	<circle class="st14" cx="249.1" cy="198.3" r="3.3"/>
	<circle class="st14" cx="249" cy="211.4" r="3.3"/>
	<polygon class="st15" points="238.6,185 248.4,195.4 258.3,185 	"/>
	<rect x="195.3" y="328" class="st16" width="104" height="10.3"/>
	<polygon class="st17" points="122.9,309 127.6,302.4 146.1,313.8 141.7,320.6 	"/>
	<polygon class="st17" points="373.4,309 368.7,302.4 350.2,313.8 354.6,320.7 	"/>
</g>
<g id="Regnjacka" class="st0">
	<g class="st1">
		<path class="st18" d="M326.2,244.3v97.2h36.6v-97.2l-27.5-56.4l-36.6-14.7c0,0,10.7-2.3,11.1-11.7c0.5-12-11.1-14.3-11.1-14.3
			s-21.5-5-42.9-5c-21.7,0-43.5,5-43.5,5s-9.4,3-9.4,14.3s9.4,12.5,9.4,12.5l-38.9,15.8L147,241.1v100.4h38.5l0.6-97.2"/>
		<polyline class="st18" points="326.2,341.5 326.2,364.1 185.2,364.1 185.5,341.5 		"/>
		<polyline class="st18" points="255.8,364.1 255.8,212.8 285.5,174.7 298.7,173.2 298.7,233.5 		"/>
		<polyline class="st18" points="255.8,212.8 226.1,174.7 212.3,173.9 212.3,233.5 		"/>
		<polyline class="st18" points="186.6,268.6 215.3,268.6 215.3,338.4 187.6,338.4 		"/>
		<line class="st18" x1="185.7" y1="298.4" x2="215.3" y2="298.4"/>
		<polyline class="st18" points="324.9,268.6 296.2,268.6 296.2,338.4 324,338.4 		"/>
		<line class="st18" x1="325.8" y1="298.4" x2="296.2" y2="298.4"/>
	</g>
	<g id="Lager_10" class="st1">
		<path class="st19" d="M186.1,244.3l-0.6,97.2H149v-99.9c0-0.3,0.1-0.6,0.2-0.9l25.9-50.2c0.2-0.4,0.6-0.7,1-0.9l36.2-15.6
			c0,0-9.4-1.1-9.4-12.5c0-11.3,9.4-14.3,9.4-14.3s21.7-5,43.5-5c21.5,0,42.9,5,42.9,5s11.6,2.4,11.1,14.3
			c-0.4,9.4-11.1,11.7-11.1,11.7l35.9,14.4c0.5,0.2,0.8,0.5,1.1,1l27,55.3c0.1,0.3,0.2,0.6,0.2,0.9v96.7h-36.6v-97.2 M185.5,341.5
			l-0.3,22.6h141v-22.6 M298.7,233.5v-60.4l-13.2,1.5l-29.7,38.1V364 M255.8,212.8l-29.7-38.1l-13.8-0.8v59.6 M187.6,338.4h27.7
			v-69.8h-28.7 M185.7,298.4h29.6 M324.9,268.6h-28.7v69.8H324 M296.2,298.4h29.6"/>
	</g>
</g>
</svg>
