<?xml version="1.0" encoding="iso-8859-1"?>
<!-- Generator: Adobe Illustrator 22.1.0, SVG Export Plug-In . SVG Version: 6.00 Build 0)  -->
<svg version="1.1" xmlns="http://www.w3.org/2000/svg" xmlns:xlink="http://www.w3.org/1999/xlink" x="0px" y="0px"
	 viewBox="0 0 500 500" style="enable-background:new 0 0 500 500;" xml:space="preserve">
<g id="Lager_2" style="display:none;">
	<rect x="-24" y="-6" style="display:inline;stroke:#FFFFFF;stroke-miterlimit:10;" width="550" height="511"/>
</g>
<g id="Lager_1">
	<g id="Handske" style="display:none;">
		<path style="display:inline;fill:none;stroke:#393939;stroke-width:6.1896;stroke-miterlimit:10;" d="M373.7,339.4
			c0,0,0,0.9,0.6,0.7c4.4-2.1,22.9-11.9,29.5-15.2c9.7-4.8,24.4-5.7,32.1,10.4c8.1,17-0.2,26.7-10.2,32.4
			c-9.9,4.8-41.6,20.5-48.7,23.2c-7.2,2.7-28.3,5.1-33.1,7.1c-5.6,2.4-18.1,8.8-18.1,8.8c-1.3,0.7-2.2,0.6-2.9-0.7l-16.5-32.6
			c-0.7-1.3-0.2-2.9,1.1-3.6c6.5-3.4,24.4-12.7,29.4-15.5c6.2-3.5,20.2-23.8,24.9-27.1c5-3.5,21.3-14,26.2-13.6
			c4.9,0.5,11.9,7.2,5.3,15.1L373.7,339.4z"/>
		<path style="display:inline;fill:none;stroke:#393939;stroke-width:6.1896;stroke-miterlimit:10;" d="M435.9,335.3
			c-7.7-16.1-22.3-15.2-32.1-10.4c-6.7,3.3-25.1,13.1-29.5,15.2c-0.6,0.3-0.6-0.7-0.6-0.7l19.6-10.5c6.6-7.8-0.4-14.6-5.3-15.1
			c-2.7-0.3-9,2.9-14.9,6.4c2.7-5.2,4.9-10.4,4.5-12.7c-0.7-4.9-7.7-11.6-15.3-4.7l-9.7,20c0,0-0.9,0-0.7-0.6
			c1.9-4.5,11-23.3,14-30.1c4.4-9.9,4.7-24.6-11.7-31.6c-17.3-7.4-26.7,1.2-31.9,11.5c-4.4,10.1-18.8,42.3-21.3,49.6
			c-2.4,7.3-4,28.4-5.8,33.4c-2.1,5.6-8.1,18.4-8.1,18.4c-0.7,1.3-0.5,2.2,0.8,2.8l25.8,11.8l9.2,18.2c0.7,1.3,1.6,1.4,2.9,0.7
			c0,0,12.5-6.5,18.1-8.8c4.8-2,26-4.4,33.1-7.1c7.2-2.7,38.8-18.4,48.7-23.2C435.7,362,444,352.3,435.9,335.3z"/>
	</g>
	<g id="Strumpa" style="display:none;">
		
			<path style="display:inline;fill:none;stroke:#393939;stroke-width:9.4877;stroke-linecap:round;stroke-linejoin:round;stroke-miterlimit:10;" d="
			M215.2,253.5c-10.2,9.1-42.8,67.5-67.8,97.2s-98.6,14.4-102.1-34.3s76.8-136.3,77.6-150.1l-0.1-37L239,129
			c0,0,37.9,60.7,12.8,99.4C245,239,219.4,249.8,215.2,253.5z M123.6,129H239c3.6,0,6.5-2.9,6.5-6.5V59.7c0-3.6-2.9-6.5-6.5-6.5
			H123.6c-3.6,0-6.5,2.9-6.5,6.5v62.7C117,126,120,129,123.6,129z M45.2,316.4L95,300.9 M184.4,195.9c0,0,39.6,13.2,74,17.4"/>
		
			<path style="display:inline;fill:none;stroke:#393939;stroke-width:9.4877;stroke-linecap:round;stroke-linejoin:round;stroke-miterlimit:10;" d="
			M397.8,340.2c-10.2,9.1-42.8,67.5-67.8,97.2c-25.1,29.7-98.6,14.4-102.1-34.3s76.8-136.3,77.6-150.1l-0.1-37l116.2-0.4
			c0,0,37.9,60.7,12.8,99.4C427.7,325.7,402,336.5,397.8,340.2z M306.2,215.7h115.5c3.6,0,6.5-2.9,6.5-6.5v-62.7
			c0-3.6-2.9-6.5-6.5-6.5H306.2c-3.6,0-6.5,2.9-6.5,6.5v62.7C299.7,212.8,302.6,215.7,306.2,215.7z M227.9,403.1l49.8-15.5
			 M367.1,282.6c0,0,39.6,13.2,74,17.4"/>
	</g>
	<g id="Hj&#xE4;lmm&#xF6;ssa" style="display:none;">
		<path style="display:inline;stroke:#020203;stroke-width:0.25;stroke-miterlimit:10;" d="M231.5,314c-3.3,0-1.6-7.1,0-10.4
			c5.9-9.1,4-16.5,1.4-25c-0.5-1.8-0.8-4.1-0.1-5.7c3.4-7.2,0.6-13.5-2.4-19.6c-5.5-10.9-11.3-21.8-17.5-32.3
			c-4.9-8.3-4.7-14.3,3.7-18.3c12-5.7,24.2-11.6,37-14.6c17.8-4.2,30.6,5.9,32.1,24.2c0.9,11.9-0.3,24.1-0.9,36.1
			c-0.3,6-4,9-9.8,10.3c-11.3,2.6-22.6,5.2-33.6,8.8c-2.3,0.8-4.8,6-5.2,9.4c-0.3,3,1.8,6.2,2.1,9.4c0.3,3.3,0.4,7-0.5,10.1
			C236.2,302.4,234.8,314,231.5,314z M239.6,262.7c11.2-2.6,25.7-6.8,36.5-9.6c1.3-0.3,3.1-4.4,3.2-5.8c0.5-11.6,1.6-23.3,0.8-34.9
			c-0.8-11.9-11.6-23.3-25.8-18.9c-11.6,3.6-22.7,9-34,13.8c-3.5,1.5-7.4,4.1-5.3,7.4c3,4.5,6,10.8,8.4,15.6
			C228.5,239.8,235,253.4,239.6,262.7z"/>
	</g>
	<g id="M&#xF6;ssa" style="display:none;">
		<path style="display:inline;fill:none;stroke:#393939;stroke-width:8;stroke-miterlimit:10;" d="M56.8,215.6
			c0,0-54.5-92.8,37.5-139.8s136.6,50.8,136.6,50.8L56.8,215.6z M118.1,66.5c0.7-5.9,0.2-13.3-2.7-19C107.7,32.3,89,26.3,73.8,34
			S52.6,60.4,60.4,75.6c3.1,6,7.9,10.6,13.5,13.5 M270.4,193.3l-33-64.6c-1.2-2.4-4.1-3.3-6.5-2.1l-174.1,89
			c-2.4,1.2-3.3,4.1-2.1,6.5l33,64.6c1.2,2.4,4.1,3.3,6.5,2.1l174.2-88.9C270.7,198.6,271.6,195.7,270.4,193.3z"/>
		<path style="display:inline;fill:#393939;stroke:#393939;stroke-width:4;stroke-miterlimit:10;" d="M261.3,408.1h-5.8
			c-10.6,0-20.7,0-30.8,0c-8.8,0-14.1-3.3-14.8-10c-0.9-9.1-1.2-16.6,9.9-19.8c0.3-0.1,0.5-0.3,1.1-0.7c-1.7-11.3-3.6-22.8-5.1-34.4
			c-1.9-15.1-4-30.2-5-45.3c-2.1-32.1,27-54.9,54.3-53.5c20.5,1,38.4,18.5,38.9,39c0.2,8,0.1,16,0,24c0,2.7,0.5,4,3.5,4.6
			c14.2,3.3,21.4,18,15.3,31.3c-5.3,11.6-11.1,22.9-16.8,34.8c8.6,2.5,11,8.7,10.5,16.7c-0.5,8.8-4.9,13.2-13.7,13.3
			c-12.8,0.1-25.5,0-38.3,0c-1.5,0-3,0-4.5,0 M429,361.6c-16.1,0-32.3,0-48.4,0c-9.2,0-14.6-3-15.5-9.7c-1.5-11-0.2-16.4,9.9-20.5
			c-2-4.1-3.9-8.2-5.9-12.3c-3.6-7.5-7.4-14.8-10.8-22.4c-6-13.4,1-27.9,15.3-31.3c3.1-0.7,3.5-2,3.5-4.7
			c-0.1-6.6,0.4-13.2-0.1-19.8c-1.7-24.9,21.8-49.5,53.6-41.7c18.6,4.6,41.2,23.1,39.5,50.7c-1,17.6-3.7,35.1-5.9,52.6
			c-1.2,9.4-2.7,18.8-4.2,28.5c11.2,0,13.1,13.6,10.9,21.5c-1.5,5.5-6.4,8.9-13,9s-13.2,0-19.8,0C438.2,361.6,430.7,361.6,429,361.6
			z M300.7,314.3c0-2.3,0-4.1,0-5.9c-0.1-9.2,0.3-18.5-0.5-27.6c-1.8-19.5-19.8-33.7-39.4-33.1c-21.9,0.7-49.6,20.1-46.6,52.3
			c1.6,17,4,33.8,6.2,50.7c1.2,9.1,2.7,18.2,4,27.1c0.7,0.2,1,0.4,1.3,0.4c24.6,0,49.2,0.1,73.8,0c1.3,0,3.1-1.3,3.7-2.5
			c5.6-11.1,11-22.3,16.4-33.5c2.3-4.8,2.7-9.8,0.8-14.8C317.1,318.8,310.3,314.9,300.7,314.3z M456.6,331.7
			c1.7-11.7,3.6-22.7,5-33.8c2-15.2,4.3-30.4,5.2-45.7c1.3-23.5-13.6-43.2-36.1-49.3c-26.8-7.3-50,10-50.5,37.8
			c-0.1,7.2,0,14.4,0,21.7c0,1.8-0.2,3.6-0.3,5.4c-1,0.2-1.6,0.3-2.2,0.5c-15.9,2.8-22.3,15.1-15.3,29.6
			c4.9,10.1,9.9,20.1,14.7,30.2c1.3,2.7,2.6,3.9,5.8,3.9c13.5-0.2,27-0.1,40.6-0.1C434.3,331.7,445.2,331.7,456.6,331.7z
			 M417.9,335.2L417.9,335.2c-13.4,0-26.7-0.1-40.1,0c-6.7,0-9.8,3.6-9.8,11c0,8.2,3,12,9.9,12c26.9,0.1,53.7,0.1,80.6-0.2
			c9.4,0,9.3-8.2,9.4-10.3c0.2-10.2-2.2-12.6-12.2-12.6C443,335.2,430.5,335.2,417.9,335.2z M262.8,404.8c0.9,0,1.8,0,2.8,0
			c12.6,0,25.2,0.1,37.8-0.1c6.8-0.1,9.7-4,9.6-12.2c-0.1-7.2-3.1-10.8-9.6-10.8c-27-0.1-54-0.1-81.1,0.1c-2.5,0-6.8,1.8-7.3,3.5
			c-1.2,4.6-1.8,9.9-0.8,14.6c0.9,4.3,5.6,5,9.9,5C237,404.7,249.9,404.8,262.8,404.8z"/>
		<g style="display:inline;">
			
				<line style="fill:none;stroke:#393939;stroke-width:2.7675;stroke-linecap:round;stroke-linejoin:round;stroke-miterlimit:10;" x1="239.8" y1="390.2" x2="252.2" y2="402.5"/>
			
				<line style="fill:none;stroke:#393939;stroke-width:2.7675;stroke-linecap:round;stroke-linejoin:round;stroke-miterlimit:10;" x1="252.2" y1="390.2" x2="239.8" y2="402.5"/>
		</g>
		<g style="display:inline;">
			
				<line style="fill:none;stroke:#393939;stroke-width:2.7675;stroke-linecap:round;stroke-linejoin:round;stroke-miterlimit:10;" x1="257.2" y1="387.2" x2="269.5" y2="399.5"/>
			
				<line style="fill:none;stroke:#393939;stroke-width:2.7675;stroke-linecap:round;stroke-linejoin:round;stroke-miterlimit:10;" x1="269.5" y1="387.2" x2="257.2" y2="399.5"/>
		</g>
		<g style="display:inline;">
			
				<line style="fill:none;stroke:#393939;stroke-width:2.7675;stroke-linecap:round;stroke-linejoin:round;stroke-miterlimit:10;" x1="280.3" y1="387.2" x2="292.7" y2="399.5"/>
			
				<line style="fill:none;stroke:#393939;stroke-width:2.7675;stroke-linecap:round;stroke-linejoin:round;stroke-miterlimit:10;" x1="292.7" y1="387.2" x2="280.3" y2="399.5"/>
		</g>
		<g style="display:inline;">
			
				<line style="fill:none;stroke:#393939;stroke-width:2.7675;stroke-linecap:round;stroke-linejoin:round;stroke-miterlimit:10;" x1="388.5" y1="340.2" x2="400.9" y2="352.5"/>
			
				<line style="fill:none;stroke:#393939;stroke-width:2.7675;stroke-linecap:round;stroke-linejoin:round;stroke-miterlimit:10;" x1="400.9" y1="340.2" x2="388.5" y2="352.5"/>
		</g>
		<g style="display:inline;">
			
				<line style="fill:none;stroke:#393939;stroke-width:2.7675;stroke-linecap:round;stroke-linejoin:round;stroke-miterlimit:10;" x1="411.9" y1="340.2" x2="424.2" y2="352.5"/>
			
				<line style="fill:none;stroke:#393939;stroke-width:2.7675;stroke-linecap:round;stroke-linejoin:round;stroke-miterlimit:10;" x1="424.2" y1="340.2" x2="411.9" y2="352.5"/>
		</g>
		<g style="display:inline;">
			
				<line style="fill:none;stroke:#393939;stroke-width:2.7675;stroke-linecap:round;stroke-linejoin:round;stroke-miterlimit:10;" x1="435" y1="340.2" x2="447.4" y2="352.5"/>
			
				<line style="fill:none;stroke:#393939;stroke-width:2.7675;stroke-linecap:round;stroke-linejoin:round;stroke-miterlimit:10;" x1="447.4" y1="340.2" x2="435" y2="352.5"/>
		</g>
		<path style="display:inline;fill:none;stroke:#393939;stroke-width:7;stroke-miterlimit:10;" d="M296,408.1
			c0,63.9,88.5,100.9,88.5-46.5"/>
	</g>
	<path style="fill:none;stroke:#2B2F3A;stroke-width:5.0415;stroke-miterlimit:10;" d="M46.443,289.577
		c6.257,18.485,23.647,30.373,46.056,22.555c31.074-10.825,56.988-23.493,78.437-49.304c13.4-16.075,15.517-41.33,5.945-63.76
		c-22.499,10.553-31.984,14.057-57.403,23.262c-0.911,17.567-48.769,41.504-65.113,56.762c-4.844,4.447-28.682,30.767-12.511,66.166
		c8.265,18.172,34.428,32.004,49.281,30.458c7.478-0.744,21.041,0.528,74.553-25.64c35.882-17.534,68.757-44.345,74.721-48.239
		c28.562-21.73,37.9-37.341,24.06-71.31c-6.764-16.592-16.81-40.372-20.716-47.295c0,0-7.015-12.587-14.913-17.579 M84.413,154.848
		c0,0-3.281,11.429,0.614,19.84s10.118,26.469,16.44,39.08c1.711,3.531,5.073,8.86,9.24,9.065
		c6.498,0.411,12.499-1.221,18.383-3.868c29.597-10.489,61.834-25.493,88.98-41.486c11.295-5.421,13.551-15.245,10.208-25.999
		c-3.737-12.128-8.546-24.035-14.014-35.492c-1.93-3.992-4.309-4.971-8.027-8.189 M83.702,160.908
		c3.804,9.311,32.318,1.755,66.448-12.131c34.13-13.886,59.833-31.562,56.029-40.874c-3.804-9.311-33.496-2.816-67.626,11.07
		C104.422,132.858,79.979,151.573,83.702,160.908z"/>
	<path style="fill:none;stroke:#2B2F3A;stroke-width:5.0415;stroke-miterlimit:10;" d="M239.488,305.977
		c5.709,18.662,22.741,31.057,45.37,23.903c31.38-9.903,57.656-21.801,79.857-46.968c13.868-15.673,16.73-40.854,7.824-63.557
		c-22.8,9.885-32.384,13.108-58.065,21.559c-1.429,17.533-49.972,40.047-66.759,54.816c-4.973,4.302-29.578,29.908-14.457,65.768
		c7.725,18.408,33.469,33.006,48.361,31.899c7.497-0.523,21.016,1.148,75.277-23.43c36.384-16.468,70.035-42.298,76.112-46.014
		c29.19-20.878,38.985-36.207,26.153-70.569c-6.271-16.784-15.612-40.851-19.312-47.885c0,0-6.64-12.788-14.388-18.011
		 M281.395,172.345c0,0-3.617,11.327,0.029,19.849c3.646,8.522,9.332,26.756,15.28,39.548c1.606,3.579,4.809,9.006,8.968,9.334
		c6.483,0.602,12.529-0.851,18.489-3.324c29.894-9.611,62.559-23.658,90.165-38.843c11.451-5.085,13.995-14.838,10.97-25.687
		c-3.377-12.233-7.833-24.277-12.96-35.89c-1.812-4.047-4.16-5.096-7.782-8.422 M280.505,178.382
		c3.527,9.42,32.252,2.707,66.777-10.165c34.525-12.873,60.738-29.784,57.21-39.203s-33.398-3.803-67.923,9.07
		C302.125,150.935,277.059,168.941,280.505,178.382z"/>
	<g id="Lager_6" style="display:none;">
	</g>
	<g id="St&#xF6;vel" style="display:none;">
		<path style="display:inline;fill:none;stroke:#020203;stroke-width:4;stroke-linejoin:round;stroke-miterlimit:10;" d="
			M265.7,203.9c0,0-7.3,25.9-5.8,47.1c2.3,31.9,42,18.3,42,33.6c1.7,14.2,0,14.2,0,14.2c-11,8-43.2,5.2-43.2,5.2l-1.3-3.2l-15.8-0.5
			l-2.3,2.4l-21.6-1.4c-6.6-1-8.4-9.1-3.5-31.6c3.5-15.9-8.2-62.8-8.2-62.8C232.4,197,265.7,203.9,265.7,203.9z M264.7,211.8
			c-30.5-5.1-57.8,2.3-57.8,2.3 M206.1,206.4c0,0-1.4-10-5.1-11.6l-5.5,2.9L206.1,206.4z M212.2,284.6c0,0,80.5,12.4,89.7,0.1"/>
		<g style="display:inline;">
			<path style="fill:none;stroke:#020203;stroke-width:2;stroke-linecap:round;stroke-linejoin:round;stroke-miterlimit:10;" d="
				M218.8,228c0,0,6.8,27.1,4.8,36.4c-2.9,13-1.8,17.7,2,18.3l12.5,0.8l1.3-1.4l9.2,0.3l0.8,1.9c0,0,18.6,1.6,25-3c0,0,1,0,0-8.2
				c0-8.9-23-1-24.4-19.5c-0.9-12.3,3.4-27.3,3.4-27.3S234.1,222.3,218.8,228z"/>
			<path style="fill:none;stroke:#020203;stroke-width:2;stroke-linejoin:round;stroke-miterlimit:10;" d="M219.3,232.2
				c0,0,15.8-4.3,33.4-1.3"/>
			<path style="fill:none;stroke:#020203;stroke-width:2;stroke-linecap:round;stroke-linejoin:round;stroke-miterlimit:10;" d="
				M218.8,227.7c0,0,0.2-5.4-1.9-6.3l-3.2,1.7L218.8,227.7z"/>
			<path style="fill:none;stroke:#020203;stroke-width:2;stroke-linejoin:round;stroke-miterlimit:10;" d="M222.4,273
				c0,0,46.6,7.2,52,0"/>
		</g>
	</g>
	<g id="Lager_1_1_">
	</g>
</g>
</svg>
