<?xml version="1.0" encoding="utf-8"?>
<!-- Generator: Adobe Illustrator 22.1.0, SVG Export Plug-In . SVG Version: 6.00 Build 0)  -->
<svg version="1.1" id="Lager_1" xmlns="http://www.w3.org/2000/svg" xmlns:xlink="http://www.w3.org/1999/xlink" x="0px" y="0px"
	 viewBox="0 0 403 403" style="enable-background:new 0 0 403 403;" xml:space="preserve">
<style type="text/css">
	.st0{display:none;fill:none;stroke:#FC596D;stroke-width:12.4119;stroke-miterlimit:10;}
	.st1{display:none;fill:none;stroke:#393939;stroke-width:10;stroke-miterlimit:10;}
	.st2{display:none;}
	.st3{display:inline;fill:#FC596D;}
	.st4{display:none;fill:none;stroke:#FFFFFF;stroke-width:10;stroke-miterlimit:10;}
	.st5{fill:#FFFFFF;}
	.st6{fill:none;stroke:#FFFFFF;stroke-width:16;stroke-miterlimit:10;}
	.st7{fill:none;stroke:#FFFFFF;stroke-width:24.9133;stroke-miterlimit:10;}
</style>
<g id="liggvagn">
	<circle class="st0" cx="275.8" cy="285" r="22.7"/>
	<circle class="st1" cx="201.5" cy="201.5" r="196.5"/>
</g>
<g id="Lager_2_1_">
</g>
<g id="sittvagn">
	<g class="st2">
		<path class="st3" d="M376,148.5c-3.9-4.2-7.6-8.3-11.5-12.5c4.1-4.2,6.4-9,6.3-14.7c-0.2-7.8-3.6-13.8-10.6-17.4
			c-7.1-3.7-14.5-3.6-20.7,1.5c-11.9,10-23.3,20.6-34.6,30.6c14.8,31.6,7.6,59.4-13,85.7c1.2,1.5,2.7,3.4,4.3,5.3
			c2.9,3.6,5.8,7.2,8.5,10.8c0.7,0.9,1.1,2.2,1.1,3.4c0.1,5,0.1,9.9,0.1,15c1.6,0.4,3.1,0.8,4.6,1.2c14.4,4.5,23.2,18.5,21.1,33.5
			c-2.1,14.5-15,25.7-29.9,25.8c-14.9,0.1-27.9-10.9-30.2-25.7c-2-12.5,4-24.9,15.2-31.1c1.6-0.9,2.1-1.9,2.1-3.6
			c-0.2-3.7,0.8-7.8-0.4-11.1c-1.1-3.3-4.5-5.7-6.5-8.7c-2.1-3.3-4.8-4.1-8.5-4.3c-22-0.9-44-2-66-3.1c-1.9-0.1-3.4,0.3-4.8,1.7
			c-3.4,3.3-7,6.4-10.4,9.8c-0.7,0.7-1.2,2-1.3,3c-0.2,3.7,0,7.5-0.1,11.2c-0.1,1.8,0.4,2.7,2.2,3.3c13,4.8,20.7,17.5,19.4,31.6
			c-1.2,12.9-11.5,24.1-24.6,26.5c-15.5,2.9-30.7-6.6-35-21.9c-4.2-14.9,3.8-30.7,18.4-36.2c2-0.8,2.5-1.7,2.5-3.7
			c-0.1-6.1-0.1-12.1,0-18.2c0-1.1,0.6-2.6,1.5-3.3c37.5-34.8,74.9-69.6,112.5-104.3c12.8-11.8,25.6-23.4,38.7-34.8
			c12.1-10.5,25.9-12.6,40.4-5.8c14.4,6.8,21.3,18.8,21.2,34.7C387.9,132.5,383,142.6,376,148.5z M301.3,273.3
			c-7.2,0-13.1,5.9-13,13.1c0,7.3,6,13.2,13.2,13.2s13.3-6.1,13.2-13.3C314.6,279.1,308.7,273.3,301.3,273.3z M182.2,273.3
			c-7.4,0-13.2,5.9-13.2,13.2c0,7.1,6,13.1,13.1,13.1c7.4,0,13.3-5.9,13.3-13.4C195.3,279,189.4,273.3,182.2,273.3z"/>
		<path class="st3" d="M92.9,220.3c0.6-0.4,1.2-0.6,1.7-1.1c10.9-9.9,21.7-19.8,32.5-29.7c8.6-7.8,18.6-7.4,26.5,1.1
			c0.6,0.6,1.1,1.3,1.9,2.1c-16,14.6-31.9,29.2-48,43.9c-4.9-5.3-9.8-10.6-14.6-15.8C92.9,220.6,92.9,220.4,92.9,220.3z"/>
		<path class="st3" d="M197.8,93.1c13.4-0.1,24.4,10.8,24.5,24.3c0.1,13.4-10.8,24.6-24.1,24.7c-13.7,0.2-24.8-10.7-24.9-24.3
			C173.2,104,184,93.2,197.8,93.1z"/>
	</g>
	<circle class="st4" cx="201.5" cy="201.5" r="196.5"/>
</g>
<path class="st5" d="M377.4,176.6c0,1-2.4,48.4-29,77.3c-9,10.7-20,19.8-29.8,29.5c0,0-4.9,2.9-4,2.9c-4,0.1-34.1,13.1-34.1,13.1
	c-27.8,8.6-57.1,9.1-87.4,2.1c1.1,2.9-43.5-18.5-43.5-18.5c-1-0.9-1.7-1.6-2.4-2.1c-28.7-20-47.6-46.5-53.9-81.2
	c-2-10.7-2.3-21.5-4-32.2c-1.9-11.4-7.4-20.5-17.5-26.5c-13,13.4,5.4-35.1,7.9-18.4c0.1,1.4,1,3.4,2.1,4
	c15.5,8.8,23.1,33.1,26.7,49.8c34.2,0,65,0,99,0"/>
<circle class="st6" cx="51.9" cy="123.3" r="18.3"/>
<circle class="st7" cx="178" cy="324.3" r="30.7"/>
<circle class="st7" cx="314.8" cy="324.3" r="30.7"/>
<path class="st5" d="M373.3,163.5C374.1,117.9,336,47,271,41c-14.8,37.7-35.5,85.9-50.6,124C266.3,164.9,328.5,163.5,373.3,163.5z"
	/>
</svg>
