<?xml version="1.0" encoding="utf-8"?>
<!-- Generator: Adobe Illustrator 22.1.0, SVG Export Plug-In . SVG Version: 6.00 Build 0)  -->
<svg version="1.1" xmlns="http://www.w3.org/2000/svg" xmlns:xlink="http://www.w3.org/1999/xlink" x="0px" y="0px"
	 viewBox="0 0 500 500" style="enable-background:new 0 0 500 500;" xml:space="preserve">
<style type="text/css">
	.st0{display:none;}
	.st1{display:inline;fill:none;stroke:#393939;stroke-width:6.1896;stroke-miterlimit:10;}
	
		.st2{display:inline;fill:none;stroke:#393939;stroke-width:9.4877;stroke-linecap:round;stroke-linejoin:round;stroke-miterlimit:10;}
	.st3{display:inline;stroke:#020203;stroke-width:0.25;stroke-miterlimit:10;}
	.st4{fill:none;stroke:#393939;stroke-width:9;stroke-miterlimit:10;}
	.st5{fill:#393939;stroke:#393939;stroke-width:5;stroke-miterlimit:10;}
	.st6{fill:none;stroke:#393939;stroke-width:2.7675;stroke-linecap:round;stroke-linejoin:round;stroke-miterlimit:10;}
	.st7{fill:none;stroke:#393939;stroke-width:7;stroke-miterlimit:10;}
	.st8{display:inline;fill:#FFFFFF;stroke:#393939;stroke-width:10.5744;stroke-miterlimit:10;}
	.st9{display:inline;fill:none;stroke:#020203;stroke-width:4;stroke-linejoin:round;stroke-miterlimit:10;}
	.st10{display:inline;fill:none;stroke:#020203;stroke-width:2;stroke-linecap:round;stroke-linejoin:round;stroke-miterlimit:10;}
	.st11{display:inline;fill:none;stroke:#020203;stroke-width:2;stroke-linejoin:round;stroke-miterlimit:10;}
</style>
<g id="Handske" class="st0">
	<path class="st1" d="M373.7,339.4c0,0,0,0.9,0.6,0.7c4.4-2.1,22.9-11.9,29.5-15.2c9.7-4.8,24.4-5.7,32.1,10.4
		c8.1,17-0.2,26.7-10.2,32.4c-9.9,4.8-41.6,20.5-48.7,23.2c-7.2,2.7-28.3,5.1-33.1,7.1c-5.6,2.4-18.1,8.8-18.1,8.8
		c-1.3,0.7-2.2,0.6-2.9-0.7l-16.5-32.6c-0.7-1.3-0.2-2.9,1.1-3.6c6.5-3.4,24.4-12.7,29.4-15.5c6.2-3.5,20.2-23.8,24.9-27.1
		c5-3.5,21.3-14,26.2-13.6c4.9,0.5,11.9,7.2,5.3,15.1L373.7,339.4z"/>
	<path class="st1" d="M435.9,335.3c-7.7-16.1-22.3-15.2-32.1-10.4c-6.7,3.3-25.1,13.1-29.5,15.2c-0.6,0.3-0.6-0.7-0.6-0.7l19.6-10.5
		c6.6-7.8-0.4-14.6-5.3-15.1c-2.7-0.3-9,2.9-14.9,6.4c2.7-5.2,4.9-10.4,4.5-12.7c-0.7-4.9-7.7-11.6-15.3-4.7l-9.7,20
		c0,0-0.9,0-0.7-0.6c1.9-4.5,11-23.3,14-30.1c4.4-9.9,4.7-24.6-11.7-31.6c-17.3-7.4-26.7,1.2-31.9,11.5
		c-4.4,10.1-18.8,42.3-21.3,49.6c-2.4,7.3-4,28.4-5.8,33.4c-2.1,5.6-8.1,18.4-8.1,18.4c-0.7,1.3-0.5,2.2,0.8,2.8l25.8,11.8l9.2,18.2
		c0.7,1.3,1.6,1.4,2.9,0.7c0,0,12.5-6.5,18.1-8.8c4.8-2,26-4.4,33.1-7.1c7.2-2.7,38.8-18.4,48.7-23.2
		C435.7,362,444,352.3,435.9,335.3z"/>
</g>
<g id="Strumpa" class="st0">
	<path class="st2" d="M215.2,253.5c-10.2,9.1-42.8,67.5-67.8,97.2s-98.6,14.4-102.1-34.3s76.8-136.3,77.6-150.1l-0.1-37L239,129
		c0,0,37.9,60.7,12.8,99.4C245,239,219.4,249.8,215.2,253.5z M123.6,129H239c3.6,0,6.5-2.9,6.5-6.5V59.7c0-3.6-2.9-6.5-6.5-6.5
		H123.6c-3.6,0-6.5,2.9-6.5,6.5v62.7C117,126,120,129,123.6,129z M45.2,316.4l49.8-15.5 M184.4,195.9c0,0,39.6,13.2,74,17.4"/>
	<path class="st2" d="M397.8,340.2c-10.2,9.1-42.8,67.5-67.8,97.2c-25.1,29.7-98.6,14.4-102.1-34.3s76.8-136.3,77.6-150.1l-0.1-37
		l116.2-0.4c0,0,37.9,60.7,12.8,99.4C427.7,325.7,402,336.5,397.8,340.2z M306.2,215.7h115.5c3.6,0,6.5-2.9,6.5-6.5v-62.7
		c0-3.6-2.9-6.5-6.5-6.5H306.2c-3.6,0-6.5,2.9-6.5,6.5v62.7C299.7,212.8,302.6,215.7,306.2,215.7z M227.9,403.1l49.8-15.5
		 M367.1,282.6c0,0,39.6,13.2,74,17.4"/>
</g>
<g id="Hjälmmössa" class="st0">
	<path class="st3" d="M231.5,314c-3.3,0-1.6-7.1,0-10.4c5.9-9.1,4-16.5,1.4-25c-0.5-1.8-0.8-4.1-0.1-5.7c3.4-7.2,0.6-13.5-2.4-19.6
		c-5.5-10.9-11.3-21.8-17.5-32.3c-4.9-8.3-4.7-14.3,3.7-18.3c12-5.7,24.2-11.6,37-14.6c17.8-4.2,30.6,5.9,32.1,24.2
		c0.9,11.9-0.3,24.1-0.9,36.1c-0.3,6-4,9-9.8,10.3c-11.3,2.6-22.6,5.2-33.6,8.8c-2.3,0.8-4.8,6-5.2,9.4c-0.3,3,1.8,6.2,2.1,9.4
		c0.3,3.3,0.4,7-0.5,10.1C236.2,302.4,234.8,314,231.5,314z M239.6,262.7c11.2-2.6,25.7-6.8,36.5-9.6c1.3-0.3,3.1-4.4,3.2-5.8
		c0.5-11.6,1.6-23.3,0.8-34.9c-0.8-11.9-11.6-23.3-25.8-18.9c-11.6,3.6-22.7,9-34,13.8c-3.5,1.5-7.4,4.1-5.3,7.4
		c3,4.5,6,10.8,8.4,15.6C228.5,239.8,235,253.4,239.6,262.7z"/>
</g>
<g id="Mössa">
	<path class="st4" d="M56.8,215.6c0,0-54.5-92.8,37.5-139.8s136.6,50.8,136.6,50.8L56.8,215.6z M118.1,66.5c0.7-5.9,0.2-13.3-2.7-19
		C107.7,32.3,89,26.3,73.8,34S52.6,60.4,60.4,75.6c3.1,6,7.9,10.6,13.5,13.5 M270.4,193.3l-33-64.6c-1.2-2.4-4.1-3.3-6.5-2.1
		L56.8,215.6c-2.4,1.2-3.3,4.1-2.1,6.5l33,64.6c1.2,2.4,4.1,3.3,6.5,2.1l174.2-88.9C270.7,198.6,271.6,195.7,270.4,193.3z"/>
	<path class="st5" d="M415,383.3 M261.3,408.1l-5.8,0c-10.6,0-20.7,0-30.8,0c-8.8,0-14.1-3.3-14.8-10c-0.9-9.1-1.2-16.6,9.9-19.8
		c0.3-0.1,0.5-0.3,1.1-0.7c-1.7-11.3-3.6-22.8-5.1-34.4c-1.9-15.1-4-30.2-5-45.3c-2.1-32.1,27-54.9,54.3-53.5
		c20.5,1,38.4,18.5,38.9,39c0.2,8,0.1,16,0,24c0,2.7,0.5,4,3.5,4.6c14.2,3.3,21.4,18,15.3,31.3c-5.3,11.6-11.1,22.9-16.8,34.8
		c8.6,2.5,11,8.7,10.5,16.7c-0.5,8.8-4.9,13.2-13.7,13.3c-12.8,0.1-25.5,0-38.3,0c-1.5,0-3,0-4.5,0 M418,382.8 M429,361.6
		c-16.1,0-32.3,0-48.4,0c-9.2,0-14.6-3-15.5-9.7c-1.5-11-0.2-16.4,9.9-20.5c-2-4.1-3.9-8.2-5.9-12.3c-3.6-7.5-7.4-14.8-10.8-22.4
		c-6-13.4,1-27.9,15.3-31.3c3.1-0.7,3.5-2,3.5-4.7c-0.1-6.6,0.4-13.2-0.1-19.8c-1.7-24.9,21.8-49.5,53.6-41.7
		c18.6,4.6,41.2,23.1,39.5,50.7c-1,17.6-3.7,35.1-5.9,52.6c-1.2,9.4-2.7,18.8-4.2,28.5c11.2,0,13.1,13.6,10.9,21.5
		c-1.5,5.5-6.4,8.9-13,9c-6.6,0.1-13.2,0-19.8,0C438.2,361.6,430.7,361.6,429,361.6z M300.7,314.3c0-2.3,0-4.1,0-5.9
		c-0.1-9.2,0.3-18.5-0.5-27.6c-1.8-19.5-19.8-33.7-39.4-33.1c-21.9,0.7-49.6,20.1-46.6,52.3c1.6,17,4,33.8,6.2,50.7
		c1.2,9.1,2.7,18.2,4,27.1c0.7,0.2,1,0.4,1.3,0.4c24.6,0,49.2,0.1,73.8,0c1.3,0,3.1-1.3,3.7-2.5c5.6-11.1,11-22.3,16.4-33.5
		c2.3-4.8,2.7-9.8,0.8-14.8C317.1,318.8,310.3,314.9,300.7,314.3z M456.6,331.7c1.7-11.7,3.6-22.7,5-33.8c2-15.2,4.3-30.4,5.2-45.7
		c1.3-23.5-13.6-43.2-36.1-49.3c-26.8-7.3-50,10-50.5,37.8c-0.1,7.2,0,14.4,0,21.7c0,1.8-0.2,3.6-0.3,5.4c-1,0.2-1.6,0.3-2.2,0.5
		c-15.9,2.8-22.3,15.1-15.3,29.6c4.9,10.1,9.9,20.1,14.7,30.2c1.3,2.7,2.6,3.9,5.8,3.9c13.5-0.2,27-0.1,40.6-0.1
		C434.3,331.7,445.2,331.7,456.6,331.7z M417.9,335.2C417.9,335.2,417.9,335.2,417.9,335.2c-13.4,0-26.7-0.1-40.1,0
		c-6.7,0-9.8,3.6-9.8,11c0,8.2,3,12,9.9,12c26.9,0.1,53.7,0.1,80.6-0.2c9.4,0,9.3-8.2,9.4-10.3c0.2-10.2-2.2-12.6-12.2-12.6
		C443,335.2,430.5,335.2,417.9,335.2z M262.8,404.8c0.9,0,1.8,0,2.8,0c12.6,0,25.2,0.1,37.8-0.1c6.8-0.1,9.7-4,9.6-12.2
		c-0.1-7.2-3.1-10.8-9.6-10.8c-27-0.1-54-0.1-81.1,0.1c-2.5,0-6.8,1.8-7.3,3.5c-1.2,4.6-1.8,9.9-0.8,14.6c0.9,4.3,5.6,5,9.9,5
		C237,404.7,249.9,404.8,262.8,404.8z"/>
	<g>
		<line class="st6" x1="234.7" y1="387.2" x2="247" y2="399.5"/>
		<line class="st6" x1="247" y1="387.2" x2="234.7" y2="399.5"/>
	</g>
	<g>
		<line class="st6" x1="257.2" y1="387.2" x2="269.5" y2="399.5"/>
		<line class="st6" x1="269.5" y1="387.2" x2="257.2" y2="399.5"/>
	</g>
	<g>
		<line class="st6" x1="280.3" y1="387.2" x2="292.7" y2="399.5"/>
		<line class="st6" x1="292.7" y1="387.2" x2="280.3" y2="399.5"/>
	</g>
	<g>
		<line class="st6" x1="388.5" y1="340.2" x2="400.9" y2="352.5"/>
		<line class="st6" x1="400.9" y1="340.2" x2="388.5" y2="352.5"/>
	</g>
	<g>
		<line class="st6" x1="411.9" y1="340.2" x2="424.2" y2="352.5"/>
		<line class="st6" x1="424.2" y1="340.2" x2="411.9" y2="352.5"/>
	</g>
	<g>
		<line class="st6" x1="435" y1="340.2" x2="447.4" y2="352.5"/>
		<line class="st6" x1="447.4" y1="340.2" x2="435" y2="352.5"/>
	</g>
	<path class="st7" d="M296,408.1c0,63.9,88.5,100.9,88.5-46.5"/>
</g>
<g id="Fleecetofflor" class="st0">
	<path class="st8" d="M331.3,160 M47.2,279.2 M203.5,238.1 M70.7,216.9c1.1,23.2,17.1,42.5,45.3,40.9c39.1-2.2,72.9-8.2,105.9-30.7
		c20.6-14,31.3-42.2,27.7-71c-29.2,4.7-41.2,5.6-73.3,7.8c-6.8,19.8-69.4,31.5-93.1,43.6c-7,3.5-42.9,25.8-36,71.6
		c3.5,23.5,28.9,47.9,46.4,51c8.8,1.6,23.9,7.5,93.7-4.9c46.8-8.3,93.2-28.2,101.3-30.7c39.8-15.5,55.6-30.3,50.9-73.7
		c-2.3-21.2-6-51.7-8.2-60.9c0,0-3.9-16.7-11.3-25 M158.3,75.2c0,0-7.5,12-5.8,22.9s2.9,33.6,6,50.1c0.8,4.6,2.9,11.8,7.6,13.4
		c7.3,2.6,14.7,2.7,22.3,1.6c37.3-2.3,79.1-8.9,115.4-18.3c14.7-2.5,20.5-13,20.2-26.4c-0.3-15.1-1.9-30.3-4.4-45.2
		c-0.9-5.2-3.3-7.1-6.5-12 M155.5,81.9c1.3,11.9,36.4,12.6,80,7.9s78.8-16.5,77.5-28.4s-37.4-14.2-81-9.5S154.3,70,155.5,81.9z"/>
	<path class="st8" d="M451.1,270 M167,389.3 M323.3,348.1 M190.5,327c1.1,23.2,17.1,42.5,45.3,40.9c39.1-2.2,72.9-8.2,105.9-30.7
		c20.6-14,31.3-42.2,27.7-71c-29.2,4.7-41.2,5.6-73.3,7.8c-6.8,19.8-69.4,31.5-93.1,43.6c-7,3.5-42.9,25.8-36,71.6
		c3.5,23.5,28.9,47.9,46.4,51c8.8,1.6,23.9,7.5,93.7-4.9c46.8-8.3,93.2-28.2,101.3-30.7c39.8-15.5,55.6-30.3,50.9-73.7
		c-2.3-21.2-6-51.7-8.2-60.9c0,0-3.9-16.7-11.3-25 M278.1,185.2c0,0-7.5,12-5.8,22.9c1.7,10.9,2.9,33.6,6,50.1
		c0.8,4.6,2.9,11.8,7.6,13.4c7.3,2.6,14.7,2.7,22.3,1.6c37.3-2.3,79.1-8.9,115.4-18.3c14.7-2.5,20.5-13,20.2-26.4
		c-0.3-15.1-1.9-30.3-4.4-45.2c-0.9-5.2-3.3-7.1-6.5-12 M275.3,191.9c1.3,11.9,36.4,12.6,80,7.9c43.6-4.7,78.8-16.5,77.5-28.4
		c-1.3-11.9-37.4-14.2-81-9.5C308.3,166.6,274.1,180,275.3,191.9z"/>
</g>
<g id="Lager_6" class="st0">
</g>
<g id="Stövel" class="st0">
	<path class="st9" d="M265.7,203.9c0,0-7.3,25.9-5.8,47.1c2.3,31.9,42,18.3,42,33.6c1.7,14.2,0,14.2,0,14.2c-11,8-43.2,5.2-43.2,5.2
		l-1.3-3.2l-15.8-0.5l-2.3,2.4l-21.6-1.4c-6.6-1-8.4-9.1-3.5-31.6c3.5-15.9-8.2-62.8-8.2-62.8C232.4,197,265.7,203.9,265.7,203.9z
		 M264.7,211.8c-30.5-5.1-57.8,2.3-57.8,2.3 M206.1,206.4c0,0-1.4-10-5.1-11.6l-5.5,2.9L206.1,206.4z M212.2,284.6
		c0,0,80.5,12.4,89.7,0.1"/>
	<g>
		<path class="st10" d="M218.8,228c0,0,6.8,27.1,4.8,36.4c-2.9,13-1.8,17.7,2,18.3l12.5,0.8l1.3-1.4l9.2,0.3l0.8,1.9
			c0,0,18.6,1.6,25-3c0,0,1,0,0-8.2c0-8.9-23-1-24.4-19.5c-0.9-12.3,3.4-27.3,3.4-27.3S234.1,222.3,218.8,228z"/>
		<path class="st11" d="M219.3,232.2c0,0,15.8-4.3,33.4-1.3"/>
		<path class="st10" d="M218.8,227.7c0,0,0.2-5.4-1.9-6.3l-3.2,1.7L218.8,227.7z"/>
		<path class="st11" d="M222.4,273c0,0,46.6,7.2,52,0"/>
	</g>
</g>
<g id="Lager_1">
</g>
</svg>
