<?xml version="1.0" encoding="utf-8"?>
<!-- Generator: Adobe Illustrator 22.1.0, SVG Export Plug-In . SVG Version: 6.00 Build 0)  -->
<svg version="1.1" id="Lager_1" xmlns="http://www.w3.org/2000/svg" xmlns:xlink="http://www.w3.org/1999/xlink" x="0px" y="0px"
	 viewBox="0 0 403 403" style="enable-background:new 0 0 403 403;" xml:space="preserve">
<style type="text/css">
	.st0{fill:#393939;}
	.st1{display:none;fill:none;stroke:#FFFFFF;stroke-width:10;stroke-miterlimit:10;}
</style>
<g id="Lager_2_1_">
</g>
<g id="sittvagn">
	<g>
		<path class="st0" d="M37.3,229.6c0.9-0.6,1.8-0.9,2.5-1.6c16-14.5,31.8-29,47.6-43.5c12.6-11.4,27.2-10.8,38.8,1.6
			c0.9,0.9,1.6,1.9,2.8,3.1c-23.4,21.4-46.7,42.8-70.3,64.3c-7.2-7.8-14.4-15.5-21.4-23.1C37.3,230,37.3,229.7,37.3,229.6z"/>
		<path class="st0" d="M370,124.4c-5.7-6.2-11.1-12.2-16.8-18.3c6-6.2,9.4-13.2,9.2-21.5c-0.3-11.4-5.3-20.2-15.5-25.5
			c-10.4-5.4-21.2-5.3-30.3,2.2c-17.4,14.6-34.1,30.2-50.7,44.8c21.7,46.3,11.1,87-19,125.5c1.8,2.2,4,5,6.3,7.8
			c4.2,5.3,8.5,10.5,12.5,15.8c1,1.3,1.6,3.2,1.6,5c0.1,7.3,0.1,14.5,0.1,22c2.3,0.6,4.5,1.2,6.7,1.8c21.1,6.6,34,27.1,30.9,49.1
			c-3.1,21.2-22,37.6-43.8,37.8c-21.8,0.1-40.9-16-44.2-37.6c-2.9-18.3,5.9-36.5,22.3-45.6c2.3-1.3,3.1-2.8,3.1-5.3
			c-0.3-5.4,1.2-11.4-0.6-16.3c-1.6-4.8-6.6-8.3-9.5-12.7c-3.1-4.8-7-6-12.5-6.3c-32.2-1.3-64.5-2.9-96.7-4.5c-2.8-0.1-5,0.4-7,2.5
			c-5,4.8-10.3,9.4-15.2,14.4c-1,1-1.8,2.9-1.9,4.4c-0.3,5.4,0,11-0.1,16.4c-0.1,2.6,0.6,4,3.2,4.8c19,7,30.3,25.6,28.4,46.3
			c-1.8,18.9-16.8,35.3-36,38.8c-22.7,4.2-45-9.7-51.3-32.1c-6.2-21.8,5.6-45,27-53c2.9-1.2,3.7-2.5,3.7-5.4
			c-0.1-8.9-0.1-17.7,0-26.7c0-1.6,0.9-3.8,2.2-4.8c54.9-51,109.7-102,164.8-152.8c18.8-17.3,37.5-34.3,56.7-51
			c17.7-15.4,37.9-18.5,59.2-8.5c21.1,10,31.2,27.5,31.1,50.8C387.4,100.9,380.3,115.7,370,124.4z M260.6,307.2
			c-10.5,0-19.2,8.6-19,19.2c0,10.7,8.8,19.3,19.3,19.3c10.5,0,19.5-8.9,19.3-19.5C280.1,315.7,271.4,307.2,260.6,307.2z
			 M86.1,307.2c-10.8,0-19.3,8.6-19.3,19.3c0,10.4,8.8,19.2,19.2,19.2c10.8,0,19.5-8.6,19.5-19.6C105.3,315.5,96.7,307.2,86.1,307.2
			z"/>
		<path class="st0" d="M191,43.2c19.6-0.1,35.7,15.8,35.9,35.6c0.1,19.6-15.8,36-35.3,36.2c-20.1,0.3-36.3-15.7-36.5-35.6
			C155,59.2,170.8,43.4,191,43.2z"/>
	</g>
	<circle class="st1" cx="201.5" cy="201.5" r="196.5"/>
</g>
</svg>
