<?xml version="1.0" encoding="utf-8"?>
<!-- Generator: Adobe Illustrator 22.1.0, SVG Export Plug-In . SVG Version: 6.00 Build 0)  -->
<svg version="1.1" id="Lager_1" xmlns="http://www.w3.org/2000/svg" xmlns:xlink="http://www.w3.org/1999/xlink" x="0px" y="0px"
	 viewBox="0 0 403 403" style="enable-background:new 0 0 403 403;" xml:space="preserve">
<style type="text/css">
	.st0{display:none;fill:#FC596D;}
	.st1{display:none;fill:none;stroke:#FC596D;stroke-width:10.0968;stroke-miterlimit:10;}
	.st2{display:none;fill:none;stroke:#FC596D;stroke-width:10;stroke-miterlimit:10;}
	.st3{fill:none;stroke:#393939;stroke-width:10;stroke-miterlimit:10;}
	.st4{fill:#393939;}
	.st5{display:none;fill:none;stroke:#FFFFFF;stroke-width:10;stroke-miterlimit:10;}
</style>
<g id="liggvagn">
	<path class="st0" d="M162.3,257.5c-0.7-0.6-1.2-1.1-1.7-1.5c-20.1-14-33.4-32.6-37.8-56.9c-1.4-7.5-1.6-15.1-2.8-22.6
		c-1.3-8-5.2-14.4-12.3-18.6c-9.1,9.4,1.7-24.6,3.4-12.9c0.1,1,0.7,2.4,1.5,2.8c10.9,6.2,16.2,16.2,18.7,27.9c24,0,47.7,0,71.5,0
		c8.8-22.1,17.5-44,26.1-65.9c3.5-8.9,6.7-17.9,10.1-26.9c1.3,0,2.7,0,4,0c1.6,0.7,3.1,1.5,4.7,2.1c36,11.7,60.9,34.4,70.7,71.8
		c1.6,6.3,2.4,12.8,3.6,19.1c0,0.7,0,1.3,0,2c-0.3,1.7-0.9,3.3-1,5c-0.3,20.3-6.3,38.6-19.3,54.2c-6.3,7.5-14,13.9-20.9,20.7
		c0,0-3.4,2-2.8,2c-2.8,0.1-23.9,9.2-23.9,9.2c-19.5,6-40,6.4-61.3,1.5C193.6,272.5,162.3,257.5,162.3,257.5z M132.2,187.2
		c-0.1,0.7-0.3,1.2-0.3,1.7c2.4,21.4,11.4,39.4,28.2,53c24.5,19.8,52.7,25.2,82.9,18.7c28.3-6.1,50-21.8,61.3-49.4
		c3.1-7.5,4.4-15.6,6.7-24C250.3,187.2,191.3,187.2,132.2,187.2z M309.5,175.7c0.6-32-23.6-67.3-63.5-79.5
		c-10.4,26.4-20.9,52.8-31.5,79.5C246.7,175.7,278.1,175.7,309.5,175.7z"/>
	<circle class="st1" cx="167" cy="289" r="25.6"/>
	<circle class="st2" cx="91" cy="145.6" r="15.6"/>
	<circle class="st1" cx="279.8" cy="289" r="25.6"/>
	<circle class="st3" cx="201.5" cy="201.5" r="196.5"/>
</g>
<g id="Lager_2_1_">
</g>
<g id="sittvagn">
	<g>
		<path class="st4" d="M92.9,220.3c0.6-0.4,1.2-0.6,1.7-1.1c10.9-9.9,21.7-19.8,32.5-29.7c8.6-7.8,18.6-7.4,26.5,1.1
			c0.6,0.6,1.1,1.3,1.9,2.1c-16,14.6-31.9,29.2-48,43.9c-4.9-5.3-9.8-10.6-14.6-15.8C92.9,220.6,92.9,220.4,92.9,220.3z"/>
		<path class="st4" d="M320,148.5c-3.9-4.2-7.6-8.3-11.5-12.5c4.1-4.2,6.4-9,6.3-14.7c-0.2-7.8-3.6-13.8-10.6-17.4
			c-7.1-3.7-14.5-3.6-20.7,1.5c-11.9,10-23.3,20.6-34.6,30.6c14.8,31.6,7.6,59.4-13,85.7c1.2,1.5,2.7,3.4,4.3,5.3
			c2.9,3.6,5.8,7.2,8.5,10.8c0.7,0.9,1.1,2.2,1.1,3.4c0.1,5,0.1,9.9,0.1,15c1.6,0.4,3.1,0.8,4.6,1.2c14.4,4.5,23.2,18.5,21.1,33.5
			c-2.1,14.5-15,25.7-29.9,25.8c-14.9,0.1-27.9-10.9-30.2-25.7c-2-12.5,4-24.9,15.2-31.1c1.6-0.9,2.1-1.9,2.1-3.6
			c-0.2-3.7,0.8-7.8-0.4-11.1c-1.1-3.3-4.5-5.7-6.5-8.7c-2.1-3.3-4.8-4.1-8.5-4.3c-22-0.9-44-2-66-3.1c-1.9-0.1-3.4,0.3-4.8,1.7
			c-3.4,3.3-7,6.4-10.4,9.8c-0.7,0.7-1.2,2-1.3,3c-0.2,3.7,0,7.5-0.1,11.2c-0.1,1.8,0.4,2.7,2.2,3.3c13,4.8,20.7,17.5,19.4,31.6
			c-1.2,12.9-11.5,24.1-24.6,26.5c-15.5,2.9-30.7-6.6-35-21.9c-4.2-14.9,3.8-30.7,18.4-36.2c2-0.8,2.5-1.7,2.5-3.7
			c-0.1-6.1-0.1-12.1,0-18.2c0-1.1,0.6-2.6,1.5-3.3c37.5-34.8,74.9-69.6,112.5-104.3c12.8-11.8,25.6-23.4,38.7-34.8
			c12.1-10.5,25.9-12.6,40.4-5.8c14.4,6.8,21.3,18.8,21.2,34.7C331.9,132.5,327,142.6,320,148.5z M245.3,273.3
			c-7.2,0-13.1,5.9-13,13.1c0,7.3,6,13.2,13.2,13.2s13.3-6.1,13.2-13.3C258.6,279.1,252.7,273.3,245.3,273.3z M126.2,273.3
			c-7.4,0-13.2,5.9-13.2,13.2c0,7.1,6,13.1,13.1,13.1c7.4,0,13.3-5.9,13.3-13.4C139.3,279,133.4,273.3,126.2,273.3z"/>
		<path class="st4" d="M197.8,93.1c13.4-0.1,24.4,10.8,24.5,24.3c0.1,13.4-10.8,24.6-24.1,24.7c-13.7,0.2-24.8-10.7-24.9-24.3
			C173.2,104,184,93.2,197.8,93.1z"/>
	</g>
	<circle class="st5" cx="201.5" cy="201.5" r="196.5"/>
</g>
</svg>
