<?xml version="1.0" encoding="utf-8"?>
<!-- Generator: Adobe Illustrator 22.1.0, SVG Export Plug-In . SVG Version: 6.00 Build 0)  -->
<svg version="1.1" xmlns="http://www.w3.org/2000/svg" xmlns:xlink="http://www.w3.org/1999/xlink" x="0px" y="0px"
	 viewBox="0 0 403 403" style="enable-background:new 0 0 403 403;" xml:space="preserve">
<style type="text/css">
	.st0{display:none;}
	.st1{display:inline;fill:#000C11;}
	.st2{display:inline;}
	.st3{display:none;fill:none;stroke:#FC596D;stroke-width:12.4119;stroke-miterlimit:10;}
	.st4{display:none;fill:none;stroke:#393939;stroke-width:10;stroke-miterlimit:10;}
	.st5{display:inline;fill:#FC596D;}
	.st6{display:none;fill:none;stroke:#FFFFFF;stroke-width:10;stroke-miterlimit:10;}
	.st7{display:inline;fill:none;stroke:#FFFFFF;stroke-width:7;stroke-miterlimit:10;}
	.st8{display:inline;fill:none;stroke:#FFFFFF;stroke-width:7;stroke-linecap:round;stroke-linejoin:round;stroke-miterlimit:10;}
	.st9{fill:none;stroke:#FFFFFF;stroke-width:7;stroke-linecap:round;stroke-linejoin:round;stroke-miterlimit:10;}
	.st10{fill:none;stroke:#FFFFFF;stroke-width:7;stroke-miterlimit:10;}
	.st11{fill:none;stroke:#FFFFFF;stroke-width:6.3192;stroke-miterlimit:10;}
</style>
<g id="Lager_4" class="st0">
	<rect class="st1" width="403" height="403"/>
</g>
<g id="Lager_1" class="st0">
	<g id="liggvagn" class="st2">
		<circle class="st3" cx="275.8" cy="285" r="22.7"/>
		<circle class="st4" cx="201.5" cy="201.5" r="196.5"/>
	</g>
	<g id="Lager_2_1_" class="st2">
	</g>
	<g id="sittvagn" class="st2">
		<g class="st0">
			<path class="st5" d="M376,148.5c-3.9-4.2-7.6-8.3-11.5-12.5c4.1-4.2,6.4-9,6.3-14.7c-0.2-7.8-3.6-13.8-10.6-17.4
				c-7.1-3.7-14.5-3.6-20.7,1.5c-11.9,10-23.3,20.6-34.6,30.6c14.8,31.6,7.6,59.4-13,85.7c1.2,1.5,2.7,3.4,4.3,5.3
				c2.9,3.6,5.8,7.2,8.5,10.8c0.7,0.9,1.1,2.2,1.1,3.4c0.1,5,0.1,9.9,0.1,15c1.6,0.4,3.1,0.8,4.6,1.2c14.4,4.5,23.2,18.5,21.1,33.5
				c-2.1,14.5-15,25.7-29.9,25.8c-14.9,0.1-27.9-10.9-30.2-25.7c-2-12.5,4-24.9,15.2-31.1c1.6-0.9,2.1-1.9,2.1-3.6
				c-0.2-3.7,0.8-7.8-0.4-11.1c-1.1-3.3-4.5-5.7-6.5-8.7c-2.1-3.3-4.8-4.1-8.5-4.3c-22-0.9-44-2-66-3.1c-1.9-0.1-3.4,0.3-4.8,1.7
				c-3.4,3.3-7,6.4-10.4,9.8c-0.7,0.7-1.2,2-1.3,3c-0.2,3.7,0,7.5-0.1,11.2c-0.1,1.8,0.4,2.7,2.2,3.3c13,4.8,20.7,17.5,19.4,31.6
				c-1.2,12.9-11.5,24.1-24.6,26.5c-15.5,2.9-30.7-6.6-35-21.9c-4.2-14.9,3.8-30.7,18.4-36.2c2-0.8,2.5-1.7,2.5-3.7
				c-0.1-6.1-0.1-12.1,0-18.2c0-1.1,0.6-2.6,1.5-3.3c37.5-34.8,74.9-69.6,112.5-104.3c12.8-11.8,25.6-23.4,38.7-34.8
				c12.1-10.5,25.9-12.6,40.4-5.8c14.4,6.8,21.3,18.8,21.2,34.7C387.9,132.5,383,142.6,376,148.5z M301.3,273.3
				c-7.2,0-13.1,5.9-13,13.1c0,7.3,6,13.2,13.2,13.2s13.3-6.1,13.2-13.3C314.6,279.1,308.7,273.3,301.3,273.3z M182.2,273.3
				c-7.4,0-13.2,5.9-13.2,13.2c0,7.1,6,13.1,13.1,13.1c7.4,0,13.3-5.9,13.3-13.4C195.3,279,189.4,273.3,182.2,273.3z"/>
			<path class="st5" d="M92.9,220.3c0.6-0.4,1.2-0.6,1.7-1.1c10.9-9.9,21.7-19.8,32.5-29.7c8.6-7.8,18.6-7.4,26.5,1.1
				c0.6,0.6,1.1,1.3,1.9,2.1c-16,14.6-31.9,29.2-48,43.9c-4.9-5.3-9.8-10.6-14.6-15.8C92.9,220.6,92.9,220.4,92.9,220.3z"/>
			<path class="st5" d="M197.8,93.1c13.4-0.1,24.4,10.8,24.5,24.3c0.1,13.4-10.8,24.6-24.1,24.7c-13.7,0.2-24.8-10.7-24.9-24.3
				C173.2,104,184,93.2,197.8,93.1z"/>
		</g>
		<circle class="st6" cx="201.5" cy="201.5" r="196.5"/>
	</g>
	<line class="st7" x1="253.8" y1="255.8" x2="291.2" y2="283.5"/>
	<line class="st7" x1="213.9" y1="255.8" x2="176.6" y2="283.5"/>
	<path class="st7" d="M97.2,154.5l121.8-3V49.8c0,0,144.9-17.1,144.9,105c0,0,6.4,78-77.5,100.4H176.1
		C176.1,255.1,102.7,242.6,97.2,154.5z"/>
	<line class="st7" x1="218.7" y1="151.6" x2="363.8" y2="151.6"/>
	<polyline class="st8" points="99.3,155.6 49.3,105.1 19.1,105.1 	"/>
	<circle class="st7" cx="302.5" cy="319.3" r="36.7"/>
	<circle class="st7" cx="170.7" cy="319.3" r="36.7"/>
</g>
<g id="Lager_3">
	<polyline class="st9" points="298.8,290 134.6,37.2 102.7,37 	"/>
	<circle class="st10" cx="288.9" cy="326" r="36.8"/>
	<circle class="st10" cx="141.2" cy="326" r="36.8"/>
	<path class="st11" d="M168.6,94.2c-44.2,28.6-56.9,87.6-28.3,131.8s87.6,56.9,131.8,28.3"/>
</g>
</svg>
