<?xml version="1.0" encoding="utf-8"?>
<!-- Generator: Adobe Illustrator 22.1.0, SVG Export Plug-In . SVG Version: 6.00 Build 0)  -->
<svg version="1.1" id="Lager_1" xmlns="http://www.w3.org/2000/svg" xmlns:xlink="http://www.w3.org/1999/xlink" x="0px" y="0px"
	 viewBox="0 0 403 403" style="enable-background:new 0 0 403 403;" xml:space="preserve">
<style type="text/css">
	.st0{fill:#FFFFFF;}
	.st1{fill:none;stroke:#FFFFFF;stroke-width:10.0968;stroke-miterlimit:10;}
	.st2{fill:none;stroke:#FFFFFF;stroke-width:10;stroke-miterlimit:10;}
</style>
<path class="st0" d="M162.3,257.5c-0.7-0.6-1.2-1.1-1.7-1.5c-20.1-14-33.4-32.6-37.8-56.9c-1.4-7.5-1.6-15.1-2.8-22.6
	c-1.3-8-5.2-14.4-12.3-18.6c-9.1,9.4,1.7-24.6,3.4-12.9c0.1,1,0.7,2.4,1.5,2.8c10.9,6.2,16.2,16.2,18.7,27.9c24,0,47.7,0,71.5,0
	c8.8-22.1,17.5-44,26.1-65.9c3.5-8.9,6.7-17.9,10.1-26.9c1.3,0,2.7,0,4,0c1.6,0.7,3.1,1.5,4.7,2.1c36,11.7,60.9,34.4,70.7,71.8
	c1.6,6.3,2.4,12.8,3.6,19.1c0,0.7,0,1.3,0,2c-0.3,1.7-0.9,3.3-1,5c-0.3,20.3-6.3,38.6-19.3,54.2c-6.3,7.5-14,13.9-20.9,20.7
	c0,0-3.4,2-2.8,2c-2.8,0.1-23.9,9.2-23.9,9.2c-19.5,6-40,6.4-61.3,1.5C193.6,272.5,162.3,257.5,162.3,257.5z M132.2,187.2
	c-0.1,0.7-0.3,1.2-0.3,1.7c2.4,21.4,11.4,39.4,28.2,53c24.5,19.8,52.7,25.2,82.9,18.7c28.3-6.1,50-21.8,61.3-49.4
	c3.1-7.5,4.4-15.6,6.7-24C250.3,187.2,191.3,187.2,132.2,187.2z M309.5,175.7c0.6-32-23.6-67.3-63.5-79.5
	c-10.4,26.4-20.9,52.8-31.5,79.5C246.7,175.7,278.1,175.7,309.5,175.7z"/>
<circle class="st1" cx="167" cy="289" r="25.6"/>
<circle class="st2" cx="91" cy="145.6" r="15.6"/>
<circle class="st1" cx="279.8" cy="289" r="25.6"/>
<circle class="st2" cx="201.5" cy="201.5" r="196.5"/>
</svg>
