<?xml version="1.0" encoding="utf-8"?>
<!-- Generator: Adobe Illustrator 22.1.0, SVG Export Plug-In . SVG Version: 6.00 Build 0)  -->
<svg version="1.1" xmlns="http://www.w3.org/2000/svg" xmlns:xlink="http://www.w3.org/1999/xlink" x="0px" y="0px"
	 viewBox="0 0 403 403" style="enable-background:new 0 0 403 403;" xml:space="preserve">
<style type="text/css">
	.st0{display:none;}
	.st1{display:inline;fill:#000C11;}
	.st2{display:inline;}
	.st3{display:none;fill:none;stroke:#FC596D;stroke-width:12.4119;stroke-miterlimit:10;}
	.st4{display:none;fill:none;stroke:#393939;stroke-width:10;stroke-miterlimit:10;}
	.st5{display:inline;fill:#FC596D;}
	.st6{display:none;fill:none;stroke:#FFFFFF;stroke-width:10;stroke-miterlimit:10;}
	.st7{display:inline;fill:none;stroke:#FFFFFF;stroke-width:7;stroke-miterlimit:10;}
	.st8{display:inline;fill:none;stroke:#FFFFFF;stroke-width:7;stroke-linecap:round;stroke-linejoin:round;stroke-miterlimit:10;}
	.st9{display:inline;fill:none;stroke:#FFFFFF;stroke-width:6.3192;stroke-miterlimit:10;}
	.st10{fill:none;stroke:#FFFFFF;stroke-width:6;stroke-miterlimit:10;}
	.st11{fill:none;stroke:#FFFFFF;stroke-width:4.5;stroke-miterlimit:10;}
</style>
<g id="Lager_4" class="st0">
	<rect class="st1" width="403" height="403"/>
</g>
<g id="Lager_1" class="st0">
	<g id="liggvagn" class="st2">
		<circle class="st3" cx="275.8" cy="285" r="22.7"/>
		<circle class="st4" cx="201.5" cy="201.5" r="196.5"/>
	</g>
	<g id="Lager_2_1_" class="st2">
	</g>
	<g id="sittvagn" class="st2">
		<g class="st0">
			<path class="st5" d="M376,148.5c-3.9-4.2-7.6-8.3-11.5-12.5c4.1-4.2,6.4-9,6.3-14.7c-0.2-7.8-3.6-13.8-10.6-17.4
				c-7.1-3.7-14.5-3.6-20.7,1.5c-11.9,10-23.3,20.6-34.6,30.6c14.8,31.6,7.6,59.4-13,85.7c1.2,1.5,2.7,3.4,4.3,5.3
				c2.9,3.6,5.8,7.2,8.5,10.8c0.7,0.9,1.1,2.2,1.1,3.4c0.1,5,0.1,9.9,0.1,15c1.6,0.4,3.1,0.8,4.6,1.2c14.4,4.5,23.2,18.5,21.1,33.5
				c-2.1,14.5-15,25.7-29.9,25.8c-14.9,0.1-27.9-10.9-30.2-25.7c-2-12.5,4-24.9,15.2-31.1c1.6-0.9,2.1-1.9,2.1-3.6
				c-0.2-3.7,0.8-7.8-0.4-11.1c-1.1-3.3-4.5-5.7-6.5-8.7c-2.1-3.3-4.8-4.1-8.5-4.3c-22-0.9-44-2-66-3.1c-1.9-0.1-3.4,0.3-4.8,1.7
				c-3.4,3.3-7,6.4-10.4,9.8c-0.7,0.7-1.2,2-1.3,3c-0.2,3.7,0,7.5-0.1,11.2c-0.1,1.8,0.4,2.7,2.2,3.3c13,4.8,20.7,17.5,19.4,31.6
				c-1.2,12.9-11.5,24.1-24.6,26.5c-15.5,2.9-30.7-6.6-35-21.9c-4.2-14.9,3.8-30.7,18.4-36.2c2-0.8,2.5-1.7,2.5-3.7
				c-0.1-6.1-0.1-12.1,0-18.2c0-1.1,0.6-2.6,1.5-3.3c37.5-34.8,74.9-69.6,112.5-104.3c12.8-11.8,25.6-23.4,38.7-34.8
				c12.1-10.5,25.9-12.6,40.4-5.8c14.4,6.8,21.3,18.8,21.2,34.7C387.9,132.5,383,142.6,376,148.5z M301.3,273.3
				c-7.2,0-13.1,5.9-13,13.1c0,7.3,6,13.2,13.2,13.2s13.3-6.1,13.2-13.3C314.6,279.1,308.7,273.3,301.3,273.3z M182.2,273.3
				c-7.4,0-13.2,5.9-13.2,13.2c0,7.1,6,13.1,13.1,13.1c7.4,0,13.3-5.9,13.3-13.4C195.3,279,189.4,273.3,182.2,273.3z"/>
			<path class="st5" d="M92.9,220.3c0.6-0.4,1.2-0.6,1.7-1.1c10.9-9.9,21.7-19.8,32.5-29.7c8.6-7.8,18.6-7.4,26.5,1.1
				c0.6,0.6,1.1,1.3,1.9,2.1c-16,14.6-31.9,29.2-48,43.9c-4.9-5.3-9.8-10.6-14.6-15.8C92.9,220.6,92.9,220.4,92.9,220.3z"/>
			<path class="st5" d="M197.8,93.1c13.4-0.1,24.4,10.8,24.5,24.3c0.1,13.4-10.8,24.6-24.1,24.7c-13.7,0.2-24.8-10.7-24.9-24.3
				C173.2,104,184,93.2,197.8,93.1z"/>
		</g>
		<circle class="st6" cx="201.5" cy="201.5" r="196.5"/>
	</g>
	<line class="st7" x1="253.8" y1="255.8" x2="291.2" y2="283.5"/>
	<line class="st7" x1="213.9" y1="255.8" x2="176.6" y2="283.5"/>
	<path class="st7" d="M97.2,154.5l121.8-3V49.8c0,0,144.9-17.1,144.9,105c0,0,6.4,78-77.5,100.4H176.1
		C176.1,255.1,102.7,242.6,97.2,154.5z"/>
	<line class="st7" x1="218.7" y1="151.6" x2="363.8" y2="151.6"/>
	<polyline class="st8" points="99.3,155.6 49.3,105.1 19.1,105.1 	"/>
	<circle class="st7" cx="302.5" cy="319.3" r="36.7"/>
	<circle class="st7" cx="170.7" cy="319.3" r="36.7"/>
</g>
<g id="Lager_3" class="st0">
	<polyline class="st8" points="298.8,290 134.6,37.2 102.7,37 	"/>
	<circle class="st7" cx="288.9" cy="326" r="36.8"/>
	<circle class="st7" cx="141.2" cy="326" r="36.8"/>
	<path class="st9" d="M168.6,94.2c-44.2,28.6-56.9,87.6-28.3,131.8s87.6,56.9,131.8,28.3"/>
</g>
<g id="Lager_5">
	<path class="st10" d="M350.5,149.3c-0.6,12.7-3.1,24.9-7.4,36.8c-7.4,20.8-16.2,41.1-27.4,60.1c-4.4,7.4-9.4,14.3-15.7,20.1
		c-7.4,6.8-16.1,10.2-25.9,11.3c-7.8,0.8-15.2,0-22-3.9c-9.9-5.6-15.4-14.5-17.4-25.4c-2.2-11.8,0.2-22.7,6.7-32.8
		c3.1-4.9,5.9-10.1,8.3-15.4c5.1-11.4,4.1-22.5-3-33c-3.2-4.6-6.3-9.3-9.3-14.1c-7.1-11.6-8.1-24.1-5.7-37.2
		c2.1-11.5,7.8-20.3,17.9-26.2c5.2-3,10.7-4.9,16.5-6.1c10.8-2.2,21.5-0.7,32.1,1.7c12.3,2.8,23.5,7.9,33,16.3
		c10.7,9.5,16.5,21.5,18.4,35.6C350.1,141.2,350.2,145.3,350.5,149.3z"/>
	<path class="st10" d="M54.8,230c-0.2-10.8,1.5-21.2,6.3-30.9c5.9-12,15.3-20.5,27.2-26.4c13-6.5,26.9-9.5,41.4-9.4
		c9.7,0,18.8,2.7,27,7.8c8.3,5.2,13.8,12.4,16,22.2c2.5,11,3.1,21.9-1.1,32.7c-2.6,6.8-6.8,12.6-10.9,18.6c-3,4.4-5.8,8.8-7.3,14
		c-2.3,7.8-1,15.4,2.2,22.7c2.4,5.3,5.4,10.5,8.4,15.5c9,14.8,10.1,30,1.6,45.2c-6.7,12.1-19.9,18.1-33.6,16.6
		c-10.5-1.2-19.8-4.6-27.6-12c-4.9-4.6-9-9.9-12.6-15.6c-9.5-14.7-16.5-30.6-23.3-46.7c-4.6-10.9-8.9-22-11.2-33.7
		c-1.3-6.8-2.1-13.6-3.1-20.4C54.5,230,54.6,230,54.8,230z"/>
	<path class="st11" d="M255.5,66.9c-0.2,5.5-1.6,10.5-5.3,14.7c-5.4,6.3-14,7.6-20.8,2.9c-7.8-5.3-10.7-13-10.1-22.2
		c0.2-2.6,0.9-5.4,2-7.8c5.5-12.5,19.9-14.4,28.6-3.9C253.7,55.3,255.4,60.8,255.5,66.9z"/>
	<path class="st11" d="M186,143.8c-0.3,8.5-2.6,14.8-8,19.7c-8.1,7.2-19.3,5.5-25-3.7c-5.7-9.3-4-22.7,4-30.2
		c9.4-8.8,22.8-5.5,27.4,6.9C185.3,139.2,185.7,142.2,186,143.8z"/>
	<path class="st11" d="M143.8,139.4c-0.1,4.1-1.1,7.9-3.6,11.1c-4.5,5.8-11.8,6.4-17.3,1.6c-6.8-6-8.1-17.6-2.9-24.9
		c4.4-6,11.9-7,17.5-2.1C141.9,128.9,143.6,133.9,143.8,139.4z"/>
	<path class="st11" d="M288.3,58.1c-0.1,4.4-1.7,9.1-5.5,12.8c-5.9,5.7-14.3,4.7-18.7-2.3c-4.4-7-3.3-17.2,2.4-23.1
		c6.1-6.4,15.1-5.3,19.5,2.4C287.6,50.8,288.3,53.9,288.3,58.1z"/>
	<path class="st11" d="M88.5,142.8c0-1.6,0.6-4.3,2-6.8c3.6-6.4,10.9-7.8,16.6-3.2c6.3,5,8.2,15.1,4.1,22c-3.4,6-10.3,7.5-15.9,3.5
		C91.2,155.2,88.5,149.8,88.5,142.8z"/>
	<path class="st11" d="M316.6,64.2c-0.1,4.2-1.7,8.7-5.5,12.2c-6.1,5.6-14.3,4-17.8-3.5c-3.2-6.9-1.2-16.1,4.7-20.8
		c5.8-4.7,13.1-3.2,16.7,3.3C315.9,57.8,316.6,60.5,316.6,64.2z"/>
	<path class="st11" d="M341.5,76.2c-0.2,5.7-2.1,10.6-6.8,14c-6.2,4.7-13.6,2.2-15.8-5.3c-1.8-6.3,0.6-14,5.7-18.1
		c3.1-2.5,6.6-3.7,10.5-2.1c4.2,1.8,5.8,5.5,6.4,9.8C341.6,75.1,341.5,75.7,341.5,76.2z"/>
	<path class="st11" d="M63.4,155.7c0.4-1.4,0.8-3.8,1.9-5.9c2.4-4.8,7.7-6.3,12.5-4c7.5,3.6,11.3,14.5,7.5,22
		c-2.7,5.4-8.5,7.1-13.7,3.9C66,168.4,63.8,163,63.4,155.7z"/>
	<path class="st11" d="M360.2,93.5c-0.2,4.7-2,8.9-6.1,11.9c-5.5,4.1-12.3,1.9-14.5-4.7c-1.8-5.5,0.2-12.4,4.7-16
		c2.9-2.4,6.2-3.4,9.9-1.9c3.8,1.6,5.3,4.9,5.9,8.8C360.1,92.2,360.1,92.7,360.2,93.5z"/>
	<path class="st11" d="M66.3,178.2c-0.4,1.2-0.8,3.5-1.9,5.5c-2.4,4.5-7.7,5.7-12.3,3.1c-5.9-3.3-8.8-11.6-6.3-17.9
		c2.3-5.9,8.4-7.8,13.7-4.4C64,167.5,65.9,171.9,66.3,178.2z"/>
</g>
</svg>
