<?xml version="1.0" encoding="utf-8"?>
<!-- Generator: Adobe Illustrator 22.1.0, SVG Export Plug-In . SVG Version: 6.00 Build 0)  -->
<svg version="1.1" xmlns="http://www.w3.org/2000/svg" xmlns:xlink="http://www.w3.org/1999/xlink" x="0px" y="0px"
	 viewBox="0 0 500 500" style="enable-background:new 0 0 500 500;" xml:space="preserve">
<style type="text/css">
	.st0{display:none;}
	.st1{display:inline;fill:none;stroke:#000000;stroke-width:10;stroke-linecap:round;stroke-linejoin:round;stroke-miterlimit:10;}
	.st2{fill:none;stroke:#393939;stroke-width:7.1384;stroke-linecap:round;stroke-linejoin:round;stroke-miterlimit:10;}
	
		.st3{display:none;fill:none;stroke:#000000;stroke-width:9.4457;stroke-linecap:round;stroke-linejoin:round;stroke-miterlimit:10;}
</style>
<g id="Sweatpants" class="st0">
	<path class="st1" d="M89.7,393.4l37.6-325.7c0,0,5.7,0.5,15,1.2c24.6,1.9,74.7,5.4,114.7,5.4c55.2,0,130.9-6.6,130.9-6.6
		l38.4,330.2c-28.2,11.7-112.9,10.8-112.9,10.8S267.2,234,257,235.8c-10.2,1.8-51.6,170.5-51.6,170.5S114.7,408.7,89.7,393.4z"/>
	<path class="st1" d="M384.2,68.8l-6-37.1c0,0-79.4,4.8-121.3,4.8s-119.5-4.8-119.5-4.8l-4.8,37.2"/>
	<line class="st1" x1="257" y1="74.3" x2="257" y2="235.8"/>
	<path class="st1" d="M247.5,50.3c0,0-27.6,21.6-15.6,60.9c12,39.3,19.8,50.1,6.3,68.1"/>
	<path class="st1" d="M266.3,50.3c0,0,27.6,21.6,15.6,60.9s-19.8,50.1-6.3,68.1"/>
	<path class="st1" d="M103.3,399.2l-2.5,26.2c43.9,12.6,77,7.4,77,7.4l11.4-24.5"/>
	<path class="st1" d="M414.4,401.3l2.5,26.2c-43.9,12.6-77,7.4-77,7.4l-11.4-24.5"/>
</g>
<g id="Leggings">
	<path class="st2" d="M356.1,46.5l29,419.2l-87.4-0.4c0,0-36.6-227.1-44.2-211.9c-7.6,15.2-49.3,211.9-49.3,211.9h-89.3l37.4-419.2
		L356.1,46.5z M151.8,47.5c0,4.9,45.8,13.7,103.1,13.7s101.5-8.8,101.5-13.7 M151.8,64.3c0,4.9,45.8,13.7,103.1,13.7
		s101.5-11.9,101.5-16.8 M253.5,253.5l19-43.4c-16.1-0.3-17.5-19.9-17.5-19.9V78"/>
</g>
<g id="Lager_2">
	<path class="st3" d="M106.3,438.7l66.9-384.1h154.3l66.9,384.1c-40.9,14.6-76.4,8.7-76.4,8.7s-40.1-267-66.1-267
		c-27.3,0-67.7,267-67.7,267S148.8,455.2,106.3,438.7z M331.4,77.4H169.2 M158.4,139.2c0,0,45.4-20.1,50.6-61.8 M290.7,77.4
		c5.1,41.7,50.6,61.8,50.6,61.8 M250.3,77.4v80.4v7.8"/>
</g>
<g id="Lager_1">
</g>
</svg>
