<?xml version="1.0" encoding="utf-8"?>
<!-- Generator: Adobe Illustrator 22.1.0, SVG Export Plug-In . SVG Version: 6.00 Build 0)  -->
<svg version="1.1" id="Lager_1" xmlns="http://www.w3.org/2000/svg" xmlns:xlink="http://www.w3.org/1999/xlink" x="0px" y="0px"
	 viewBox="0 0 500 500" style="enable-background:new 0 0 500 500;" xml:space="preserve">
<style type="text/css">
	.st0{display:none;}
	
		.st1{display:inline;fill:none;stroke:#393939;stroke-width:8.4927;stroke-linecap:round;stroke-linejoin:round;stroke-miterlimit:10;}
	.st2{display:inline;}
	.st3{fill:none;stroke:#000000;stroke-width:2.9232;stroke-miterlimit:10;}
	.st4{fill:none;stroke:#393939;stroke-width:2.8129;stroke-linecap:round;stroke-linejoin:round;stroke-miterlimit:10;}
	.st5{fill:none;stroke:#393939;stroke-width:5.6259;stroke-linejoin:round;stroke-miterlimit:10;}
	.st6{fill:none;stroke:#393939;stroke-width:7.3265;stroke-linecap:round;stroke-linejoin:round;stroke-miterlimit:10;}
	.st7{fill:none;stroke:#393939;stroke-width:7.7029;stroke-linecap:round;stroke-linejoin:round;stroke-miterlimit:10;}
	
		.st8{display:inline;fill:none;stroke:#393939;stroke-width:9.7725;stroke-linecap:round;stroke-linejoin:round;stroke-miterlimit:10;}
	.st9{display:inline;fill:#393939;}
	.st10{fill:none;stroke:#020203;stroke-width:5.8847;stroke-linecap:round;stroke-linejoin:round;stroke-miterlimit:10;}
	.st11{fill:none;stroke:#020203;stroke-width:5.8847;stroke-miterlimit:10;}
	.st12{display:none;fill:none;stroke:#000000;stroke-width:9;stroke-linecap:round;stroke-linejoin:round;stroke-miterlimit:10;}
	.st13{fill:none;stroke:#2B2F3A;stroke-width:6;stroke-linecap:round;stroke-linejoin:round;stroke-miterlimit:10;}
	.st14{fill:none;stroke:#2B2F3A;stroke-width:6;stroke-miterlimit:10;}
	.st15{display:none;fill:#020203;}
	.st16{display:inline;fill:none;stroke:#000000;stroke-width:5;stroke-linecap:round;stroke-linejoin:round;stroke-miterlimit:10;}
	
		.st17{display:inline;fill:none;stroke:#020203;stroke-width:5.8847;stroke-linecap:round;stroke-linejoin:round;stroke-miterlimit:10;}
	.st18{display:inline;fill:none;stroke:#020203;stroke-width:5.8847;stroke-miterlimit:10;}
	.st19{display:inline;fill:#020203;}
	.st20{display:inline;fill:none;stroke:#000000;stroke-width:4;stroke-linecap:round;stroke-linejoin:round;stroke-miterlimit:10;}
	
		.st21{display:inline;fill:none;stroke:#000000;stroke-width:3.9329;stroke-linecap:round;stroke-linejoin:round;stroke-miterlimit:10;}
	.st22{display:inline;fill:none;stroke:#020203;stroke-width:4;stroke-linecap:round;stroke-linejoin:round;stroke-miterlimit:10;}
	.st23{fill:none;stroke:#3ABAC6;stroke-width:8;stroke-linecap:round;stroke-linejoin:round;stroke-miterlimit:10;}
	.st24{fill:none;stroke:#000000;stroke-width:8;stroke-linecap:round;stroke-linejoin:round;stroke-miterlimit:10;}
</style>
<g id="Fleeceoverall" class="st0">
	<path class="st1" d="M86,228.1l76.3-93l40.2-22.6c0,0-26.9-15.6-26.9-32.9s19.8-43.3,32.6-50.1c10.9-5.8,69.6-5.6,80.7,0
		c10.3,5.2,33.5,32.4,34,50.1c0.6,17.6-30.4,32.9-30.4,32.9l42.7,22.6l77.5,92.5c0,0,20.5,27.6,1.8,40.6c-18.8,13-35.2-6.1-35.2-6.1
		L327,214.6c0,0,16.7,115.6-3.5,182.9c-3.2,10.5-7.2,35.2-4.9,41.9c5.4,15.4,9.5,32.7-15.1,32.7c-23.2,0-47.7-32-44.9-46.1
		c6.6-33.5,10-67.5-8.6-67.5c-23.7,0-9.2,55.2-10.4,67.8c-1.2,12.6-10.6,37.6-33.5,45.5s-33.4-11-28.6-25c5-14.3,0.6-37.3-4.6-49.2
		c-9.6-21.9-1.2-182.6-1.2-182.6l-51.4,47.3c0,0-20.9,16.4-35.2,5.5C70.8,256.8,86,228.1,86,228.1z M171.7,214.9
		c8.5-45.8-9.4-79.8-9.4-79.8 M335.2,135.1c0,0-17.9,44.9-8.2,81.3 M230.4,115.7c0,0-39,76.6-24.4,232.8 M293.2,348.5
		c11.2-156.2-27.3-232.8-27.3-232.8 M270.9,115.7c20.8-6.5,28.8-37.9,28.8-37.9c5-19.4-50.2-17.6-50.2-17.6
		c-58.8-1.5-50.1,19.4-50.1,19.4c2.6,18.2,27.6,36.1,27.6,36.1H270.9z M86,228.1l34.3,34 M412.7,227.6l-33.5,34.6"/>
	<g class="st2">
		<path class="st3" d="M228.6,218.6l42.2-51.5l22.2-12.5c0,0-14.9-8.7-14.9-18.2s11.5-23.1,18-27.7c4.7-3.3,38.5-3.1,44.7,0
			c5.7,2.9,18.5,18,18.8,27.7s-16.8,18.2-16.8,18.2l23.6,12.5l42.9,51.2c0,0,11.4,15.3,1,22.5s-19.5-3.4-19.5-3.4l-28.9-26.3
			c0,0,9.3,64-1.9,101.2c-1.8,5.8-4,19.5-2.7,23.2c3,8.5,5.3,18.1-8.4,18.1c-12.8,0-26.4-17.7-24.9-25.5c3.6-18.5,5.5-37.4-4.8-37.3
			c-13.1,0-5.1,30.5-5.8,37.5c-0.6,7-5.9,20.8-18.5,25.2c-12.7,4.4-18.5-6.1-15.8-13.8c2.8-7.9,0.4-20.6-2.6-27.2
			c-5.3-12.1-0.6-101-0.6-101l-28.4,26.1c0,0-11.6,9.1-19.5,3.1C220.2,234.5,228.6,218.6,228.6,218.6z"/>
		<path class="st3" d="M270.8,167.2c0,0,9.9,18.8,5.2,44.2"/>
		<path class="st3" d="M366.4,167.2c0,0-9.9,24.8-4.5,45"/>
		<path class="st3" d="M308.5,156.4c0,0-21.6,42.4-13.5,128.8"/>
		<path class="st3" d="M328.1,156.4c0,0,21.3,42.4,15.1,128.8"/>
		<path class="st3" d="M306.5,156.4c0,0-13.8-9.9-15.3-20c0,0-4.8-11.5,27.7-10.7c0,0,30.6-1,27.8,9.7c0,0-4.4,17.4-15.9,20.9h-24.3
			V156.4z"/>
		<line class="st3" x1="228.6" y1="218.6" x2="247.6" y2="237.5"/>
		<line class="st3" x1="409.3" y1="218.4" x2="390.8" y2="237.5"/>
	</g>
</g>
<g id="Ulloverall" class="st0">
	<g class="st2">
		<path class="st4" d="M13.5,174.1L25.1,164l-4.2-5.5l127.9-104l50.2-17l8.4-10.3c0,0,20.1,9,43.6,9c19.6,0,40.8-9,40.8-9l11.3,11.3
			l48.4,17.8l126.3,102.3l-4.3,5.6l12.9,10l-27.6,33.7l-13.1-9.1l-4,5l-98.4-47.1l1.1,294.7l-7.8,0.7v18.2c0,0-14.3,2-25.5,2.6
			c-11.7,0.6-28.1-1.2-28.1-1.2l-2.3-19.1l-7.5-0.4c0,0-13.7-150.8-22.2-151.2c-8.6-0.5-24.8,151-24.8,151l-5.5,0.1l-3.3,19.6
			c0,0-15.9,1.4-28.6,1c-13.1-0.4-27.3-3-27.3-3l-0.7-19c0,0-6.5-0.4-6.5-0.5l2.5-294.6L56.2,204.8l-4.4-5.5L40,208L13.5,174.1z"/>
		<path class="st4" d="M226.2,452c0,0-23.1,0.6-36,0.4c-12.1-0.2-36-2.1-36-2.1"/>
		<line class="st4" x1="20.9" y1="158.4" x2="56.2" y2="204.8"/>
		<path class="st4" d="M199,37.5c0,0,23.7,14.3,52,14.3s52-13.4,52-13.4"/>
		<path class="st4" d="M273.3,452.2c0,0,23.9,0.6,36.4,0.5c13.7,0,34.9-1.4,34.9-1.4"/>
		<path class="st4" d="M148.8,54.5c0,0,7.8,21.6,8.8,47.4c0.6,17.6-0.7,53.7-0.7,53.7"/>
		<path class="st4" d="M351.6,56.2c0,0-7.8,21.6-8.8,47.4c-0.6,17.6,0.7,53.7,0.7,53.7"/>
		<line class="st4" x1="441.9" y1="203.7" x2="477.9" y2="158.5"/>
		<line class="st5" x1="251.1" y1="36.2" x2="251.1" y2="301"/>
		<polygon class="st6" points="251.1,38.2 243.7,58.8 258.4,58.8 		"/>
	</g>
	<g id="Lager_8" class="st2">
		<path class="st7" d="M13.5,174.1L25.1,164l-4.2-5.5l127.9-104l50.2-17l8.4-10.3c0,0,20.1,9,43.6,9c19.6,0,40.8-9,40.8-9l11.3,11.3
			l48.4,17.8l126.3,102.3l-4.3,5.6l12.9,10l-27.6,33.7l-13.1-9.1l-4,5l-98.4-47.1l1.1,294.7l-7.8,0.7v18.2c0,0-14.3,2-25.5,2.6
			c-11.7,0.6-28.1-1.2-28.1-1.2l-2.3-19.1l-7.5-0.4c0,0-13.7-150.8-22.2-151.2c-8.6-0.5-24.8,151-24.8,151l-5.5,0.1l-3.3,19.6
			c0,0-15.9,1.4-28.6,1c-13.1-0.4-27.3-3-27.3-3l-0.7-19c0,0-6.5-0.4-6.5-0.5l2.5-294.6L56.2,204.8l-4.4-5.5L40,208L13.5,174.1z
			 M154.3,450.2c0,0,23.9,1.9,36,2.1c12.9,0.2,36-0.4,36-0.4 M20.9,158.4l35.3,46.4 M199,37.5c0,0,23.7,14.3,52,14.3
			s52-13.4,52-13.4 M273.3,452.2c0,0,23.9,0.6,36.4,0.5c13.7,0,34.9-1.4,34.9-1.4 M156.8,155.6c0,0,1.3-36.1,0.7-53.7
			c-0.9-25.8-8.8-47.4-8.8-47.4 M351.6,56.2c0,0-7.8,21.6-8.8,47.4c-0.6,17.6,0.7,53.7,0.7,53.7 M441.9,203.7l36-45.2 M251.1,36.2
			V301 M251.1,38.2l-7.3,20.6h14.7L251.1,38.2z"/>
	</g>
</g>
<g id="Body" class="st0">
	<path class="st8" d="M4.8,302.3L125.6,82.9l5.1-4L184,37.8h131.3l58.4,45.1l120.8,219.4l-44.7,31.6l-96.3-146.8
		c0,0,0.6,158.8,0.5,161c-0.1,2.2-12.6,98-101.9,98s-108.3-92-108.3-90.5c0,4.7,1.7-167.8,1.7-167.8L52.1,333.9L4.8,302.3z
		 M318.7,40.4c0,0-151.8,96.8-151.8,146.7c0,9.4,0,146.8,0,146.8v6.2 M354,326.3c0,0-57.9,26-61.9,78c-1.7,22.7,5.6,30,5.6,30
		 M180.5,40.4l63.4,53.7 M201.2,432.9c0,0,6.3-5.9,4.6-28.6c-4-52-61.9-78-61.9-78 M205.4,400.2h86.5 M145.4,201.5
		c0,0,10.6-87.9-14.7-122.5 M368.8,78.9c-25.3,34.6-14.7,122.5-14.7,122.5"/>
	<circle class="st9" cx="275.4" cy="413.8" r="4.1"/>
	<circle class="st9" cx="221.4" cy="413.8" r="4.1"/>
</g>
<g id="Tröja_randig" class="st0">
	<g class="st2">
		<path class="st10" d="M127.5,301.1l63.8-121.5l36.5-14c0,0-2.4,20,22.3,20s23.1-20,23.1-20l32.9,11.6l66.6,123.9L350,315.5
			l-48.1-85.4l0.4,97.8h-107l2.4-98.2l-47.3,85.4L127.5,301.1z"/>
		<path class="st11" d="M275.9,166.4"/>
		<line class="st11" x1="273.1" y1="165.5" x2="227.7" y2="165.5"/>
		<line class="st11" x1="191.3" y1="179.6" x2="232.4" y2="179.6"/>
		<line class="st11" x1="267.8" y1="179.6" x2="307.2" y2="179.6"/>
		<line class="st11" x1="180.4" y1="200.2" x2="318.3" y2="200.2"/>
		<line class="st11" x1="169.3" y1="221.3" x2="329.7" y2="221.3"/>
		<line class="st11" x1="157.8" y1="243.3" x2="190.1" y2="243.3"/>
		<line class="st11" x1="197.3" y1="243.3" x2="302.8" y2="243.3"/>
		<line class="st11" x1="310.2" y1="243.3" x2="341.5" y2="243.3"/>
		<line class="st11" x1="146.4" y1="265.1" x2="178.1" y2="265.1"/>
		<line class="st11" x1="196.8" y1="265.1" x2="302.9" y2="265.1"/>
		<line class="st11" x1="322.4" y1="265.1" x2="352.7" y2="265.1"/>
		<line class="st11" x1="134.8" y1="287.2" x2="165.8" y2="287.2"/>
		<line class="st11" x1="196.3" y1="287.2" x2="303" y2="287.2"/>
		<line class="st11" x1="334.9" y1="287.2" x2="365.1" y2="287.2"/>
		<line class="st11" x1="139.6" y1="308.5" x2="154" y2="308.5"/>
		<line class="st11" x1="195.7" y1="308.5" x2="302.8" y2="308.5"/>
		<line class="st11" x1="346.9" y1="308.5" x2="362.1" y2="308.5"/>
	</g>
</g>
<g id="Tröja">
	<path class="st12" d="M137.9,264.2l57.2-110.1c6.8-11.8,36.5-16.4,36.5-16.4h44.6c0,0,28.6,4.6,35.8,16.4l57.5,110.1l-20.9,14.5
		l-43.8-77.1l1.1,88.5H202.7v-88.5l-43.8,76.7L137.9,264.2z"/>
	<path class="st12" d="M232,137.7c1.2,10.9,9.5,17.7,22,17.7s20.9-6.7,22-17.6"/>
	<path class="st13" d="M4.3,318.2L130.9,76.9L203.4,49c0,0-4.8,39.8,44.2,39.8S293.4,49,293.4,49l65.3,23.1L491,318.2l-45,28.7
		l-95.6-169.7l0.8,194.4H138.9l4.8-195.2l-94,169.7L4.3,318.2z"/>
	<path class="st14" d="M304.6,50.7"/>
	<line class="st14" x1="294.8" y1="49" x2="203.1" y2="49"/>
	<circle class="st15" cx="249.1" cy="168.3" r="3.3"/>
	<circle class="st15" cx="249" cy="181.4" r="3.3"/>
	<path class="st13" d="M269,182c0,0,2.6,19.7,28,19.7c24.7,0,26.5-19.7,26.5-19.7v-36.7H269V182z"/>
</g>
<g id="Sweatshirt" class="st0">
	<path class="st16" d="M137.9,294.2l57.2-110.1c6.8-11.8,36.5-16.4,36.5-16.4h44.6c0,0,28.6,4.6,35.8,16.4l57.5,110.1l-20.9,14.5
		l-43.8-77.1l1.1,88.5H202.7v-88.5l-43.8,76.7L137.9,294.2z M232,167.7c1.2,10.9,9.5,17.7,22,17.7s20.9-6.7,22-17.6"/>
	<path class="st17" d="M125.9,301.1l63.8-121.5l36.5-14c0,0-2.4,20,22.3,20s23.1-20,23.1-20l32.9,11.6l66.6,123.9l-22.7,14.4
		l-48.1-85.4l0.4,97.8h-107l2.4-98.2l-47.3,85.4L128,302.4L125.9,301.1z"/>
	<path class="st18" d="M274.8,166.4"/>
	<line class="st18" x1="271.9" y1="165.6" x2="226.6" y2="165.6"/>
	<circle class="st19" cx="249.1" cy="198.3" r="3.3"/>
	<circle class="st19" cx="249" cy="211.4" r="3.3"/>
	<polygon class="st20" points="238.6,185 248.4,195.4 258.3,185 	"/>
	<rect x="195.3" y="328" class="st21" width="104" height="10.3"/>
	<polygon class="st22" points="122.9,309 127.6,302.4 146.1,313.8 141.7,320.6 	"/>
	<polygon class="st22" points="373.4,309 368.7,302.4 350.2,313.8 354.6,320.7 	"/>
</g>
<g id="Regnjacka" class="st0">
	<g class="st2">
		<path class="st23" d="M326.2,244.3v97.2h36.6v-97.2l-27.5-56.4l-36.6-14.7c0,0,10.7-2.3,11.1-11.7c0.5-12-11.1-14.3-11.1-14.3
			s-21.5-5-42.9-5c-21.7,0-43.5,5-43.5,5s-9.4,3-9.4,14.3s9.4,12.5,9.4,12.5l-38.9,15.8L147,241.1v100.4h38.5l0.6-97.2"/>
		<polyline class="st23" points="326.2,341.5 326.2,364.1 185.2,364.1 185.5,341.5 		"/>
		<polyline class="st23" points="255.8,364.1 255.8,212.8 285.5,174.7 298.7,173.2 298.7,233.5 		"/>
		<polyline class="st23" points="255.8,212.8 226.1,174.7 212.3,173.9 212.3,233.5 		"/>
		<polyline class="st23" points="186.6,268.6 215.3,268.6 215.3,338.4 187.6,338.4 		"/>
		<line class="st23" x1="185.7" y1="298.4" x2="215.3" y2="298.4"/>
		<polyline class="st23" points="324.9,268.6 296.2,268.6 296.2,338.4 324,338.4 		"/>
		<line class="st23" x1="325.8" y1="298.4" x2="296.2" y2="298.4"/>
	</g>
	<g id="Lager_10" class="st2">
		<path class="st24" d="M186.1,244.3l-0.6,97.2H149v-99.9c0-0.3,0.1-0.6,0.2-0.9l25.9-50.2c0.2-0.4,0.6-0.7,1-0.9l36.2-15.6
			c0,0-9.4-1.1-9.4-12.5c0-11.3,9.4-14.3,9.4-14.3s21.7-5,43.5-5c21.5,0,42.9,5,42.9,5s11.6,2.4,11.1,14.3
			c-0.4,9.4-11.1,11.7-11.1,11.7l35.9,14.4c0.5,0.2,0.8,0.5,1.1,1l27,55.3c0.1,0.3,0.2,0.6,0.2,0.9v96.7h-36.6v-97.2 M185.5,341.5
			l-0.3,22.6h141v-22.6 M298.7,233.5v-60.4l-13.2,1.5l-29.7,38.1V364 M255.8,212.8l-29.7-38.1l-13.8-0.8v59.6 M187.6,338.4h27.7
			v-69.8h-28.7 M185.7,298.4h29.6 M324.9,268.6h-28.7v69.8H324 M296.2,298.4h29.6"/>
	</g>
</g>
</svg>
